<svg id="Capa_1" data-name="Capa 1" xmlns="http://www.w3.org/2000/svg" viewBox="0 0 491.86 377.47"><defs><style>.cls-1{fill:#2ca346;}</style></defs><title>google</title><path class="cls-1" d="M377.47,225H201.32v58.72H308.79a125.86,125.86,0,1,1-30.6-126.22l42.62-46.33A188.11,188.11,0,0,0,188.74,57.19C84.5,57.19,0,141.69,0,245.93S84.5,434.66,188.74,434.66c91.31,0,171.25-64.84,188.74-151V225h0Z" transform="translate(0 -57.19)"/><polygon class="cls-1" points="491.86 167.66 455.83 167.66 455.83 131.63 424.94 131.63 424.94 167.66 388.91 167.66 388.91 198.55 424.94 198.55 424.94 234.58 455.83 234.58 455.83 198.55 491.86 198.55 491.86 167.66"/></svg>