<svg id="Objects" xmlns="http://www.w3.org/2000/svg" viewBox="0 0 46.64 51.81"><defs><style>.cls-1{fill:#2ca346;}.cls-2{fill:#cacaca;}.cls-3{font-size:15.93px;fill:#333;font-family:Roboto;}</style></defs><title>graphic_3</title><path class="cls-1" d="M700.54,200.07a19,19,0,0,1-30.78,13.28l-2.89,3.21a23.25,23.25,0,0,0,11.64,5.07l3.12,5.4,3.12-5.4a23.3,23.3,0,0,0,20.13-21.57h-4.34Z" transform="translate(-658.32 -175.23)"/><path class="cls-2" d="M666.58,216.31l2.88-3.2a19,19,0,1,1,31.16-14.56c0,0.38,0,.75-0.06,1.13h4.34c0-.38.05-0.75,0.05-1.13A23.32,23.32,0,1,0,666.58,216.31Z" transform="translate(-658.32 -175.23)"/><text class="cls-3" transform="translate(8.62 28.58)">35%</text></svg>