<svg id="Objects" xmlns="http://www.w3.org/2000/svg" viewBox="0 0 46.64 51.8"><defs><style>.cls-1{fill:#cacaca;}.cls-2{fill:#2ca346;}.cls-3{font-size:15.93px;fill:#333;font-family:Roboto;}</style></defs><title>graphic_2</title><path class="cls-1" d="M625.41,179.57a19,19,0,0,1,18.79,19c0,0.38,0,.75-0.06,1.13h4.34c0-.38.05-0.75,0.05-1.13a23.31,23.31,0,0,0-23.12-23.31v4.34Z" transform="translate(-601.89 -175.24)"/><path class="cls-2" d="M644.12,200.07a19,19,0,1,1-19.1-20.5v-4.34a23.3,23.3,0,0,0-2.92,46.4l3.12,5.4,3.12-5.4a23.3,23.3,0,0,0,20.13-21.57h-4.34Z" transform="translate(-601.89 -175.24)"/><text class="cls-3" transform="translate(8.37 28.57)">75%</text></svg>