<svg id="Objects" xmlns="http://www.w3.org/2000/svg" viewBox="0 0 46.64 51.81"><defs><style>.cls-1{fill:#2ca346;}.cls-2{fill:#cacaca;}.cls-3{font-size:15.93px;fill:#333;font-family:Roboto;}</style></defs><title>graphic_4</title><path class="cls-1" d="M757,200.07a19,19,0,1,1-.58-6.42l4.11-1.39a23.31,23.31,0,1,0-25.56,29.38l3.12,5.4,3.12-5.4a23.3,23.3,0,0,0,20.13-21.57H757Z" transform="translate(-714.74 -175.23)"/><path class="cls-2" d="M761.32,199.68c0-.38.05-0.75,0.05-1.13a23.33,23.33,0,0,0-.79-5.91L756.48,194a19,19,0,0,1,.56,4.52c0,0.38,0,.75-0.06,1.13h4.34Z" transform="translate(-714.74 -175.23)"/><text class="cls-3" transform="translate(8.87 28.58)">90%</text></svg>