<svg id="Objects" xmlns="http://www.w3.org/2000/svg" viewBox="0 0 46.64 51.81"><defs><style>.cls-1{fill:#cacaca;}.cls-2{fill:#2ca346;}.cls-3{font-size:15.93px;fill:#333;font-family:Roboto;}</style></defs><title>graphic_1</title><path class="cls-1" d="M549.86,199.48c0-.31,0-0.62,0-0.93a19,19,0,1,1,38,0c0,0.31,0,.62,0,0.93h4.34c0-.31,0-0.62,0-0.93a23.32,23.32,0,1,0-46.64,0c0,0.31,0,.62,0,0.93h4.34Z" transform="translate(-545.47 -175.23)"/><path class="cls-2" d="M587.71,199.87a19,19,0,0,1-37.84,0h-4.34a23.29,23.29,0,0,0,20.14,21.76l3.12,5.4,3.12-5.4a23.3,23.3,0,0,0,20.14-21.76h-4.34Z" transform="translate(-545.47 -175.23)"/><text class="cls-3" transform="translate(8.12 28.58)">50%</text></svg>