<svg id="Capa_1" data-name="Capa 1" xmlns="http://www.w3.org/2000/svg" viewBox="0 0 290 290"><defs><style>.cls-1{fill:#fff;}</style></defs><title>icon_about_advantages_1</title><path class="cls-1" d="M285.86,52.13L243.3,94.68a10,10,0,0,1-14.07,0L195.31,60.77a10,10,0,0,1,0-14.07L237.87,4.14a77.14,77.14,0,0,0-96.65,101.5L95.86,151A71.61,71.61,0,1,0,139,194.13l45.36-45.36A77.14,77.14,0,0,0,285.86,52.13ZM99.79,246.57l-38.5,10.32L33.11,228.71l10.32-38.5,38.5-10.32,28.18,28.18Z" transform="translate(0 0)"/></svg>