<svg id="Capa_1" data-name="Capa 1" xmlns="http://www.w3.org/2000/svg" viewBox="0 0 98 76.24"><defs><style>.cls-1{fill:#fff;}</style></defs><title>icon_investors_advantages_2_2</title><polygon class="cls-1" points="5.14 39.87 5.14 39.87 5.14 39.87 5.14 39.87"/><path class="cls-1" d="M95.38,12.25l-5.09,7H59.5V47.64A15.83,15.83,0,0,0,51,59.51H36.91A15.83,15.83,0,0,0,23.24,46a16.22,16.22,0,0,0-2-.14A15.83,15.83,0,0,0,5.59,59.51H5.14V39.87L5.25,29.75H0v-7H51.19L56,12.25H95.38Z"/><path class="cls-1" d="M80.44,53.92A5.21,5.21,0,0,1,84,52.51H96.25V34.12L88.81,22.75H63v23.6A15.74,15.74,0,0,1,80.44,53.92ZM77,28H87.5L91,33.58V42H77V28h0Z"/><path class="cls-1" d="M21.54,51.74A12.25,12.25,0,1,0,33.79,64,12.25,12.25,0,0,0,21.54,51.74h0Zm0,16.3a4,4,0,1,1,4-4,4,4,0,0,1-4,4h0Z"/><path class="cls-1" d="M96.25,56H84a1.93,1.93,0,0,0-1.75,1.75v3.5A1.77,1.77,0,0,0,84,63H96.25A1.75,1.75,0,0,0,98,61.26v-3.5A1.75,1.75,0,0,0,96.25,56Z"/><path class="cls-1" d="M78.75,60.36A12.26,12.26,0,1,0,79.29,64V63.5A12.25,12.25,0,0,0,78.75,60.36ZM67,68a4,4,0,1,1,4-4A4,4,0,0,1,67,68Z"/><polygon class="cls-1" points="51.92 11.41 50.09 7 44.84 7 40.25 0 33.47 0 26.25 8.75 20.71 8.75 15.75 14 11.96 14 6.13 19.25 48.13 19.25 51.92 11.41"/></svg>