<svg id="Слой_1" data-name="Слой 1" xmlns="http://www.w3.org/2000/svg" viewBox="0 0 44.2 39.2"><defs><style>.cls-1{fill:#2aa345;stroke:#2aa345;stroke-miterlimit:10;}</style></defs><title>icon_download</title><path class="cls-1" d="M472.15,279.65a0.8,0.8,0,0,0-1.13,1.13l8,8a0.81,0.81,0,0,0,.57.23h0a0.77,0.77,0,0,0,.63-0.34l7.91-7.91a0.8,0.8,0,1,0-1.13-1.13l-6.62,6.62V260.8a0.8,0.8,0,1,0-1.6,0v25.5Zm0,0" transform="translate(-457.5 -259.5)"/><path class="cls-1" d="M486.2,269.8a0.8,0.8,0,1,0,0,1.6h13.4v25.2h-40V271.4H473a0.8,0.8,0,1,0,0-1.6H458v28.4h43.2V269.8h-15Zm0,0" transform="translate(-457.5 -259.5)"/></svg>