<svg id="Layer_1" data-name="Layer 1" xmlns="http://www.w3.org/2000/svg" viewBox="0 0 300.15 512"><defs><style>.cls-1{fill:#fff;}</style></defs><title>icon_about_advantages_4</title><path class="cls-1" d="M406.08,172.28L392.5,148.77l-0.2-.34-8.67-15L291.06,257.06H232.2L341.58,111h29.09L341.83,61A20.63,20.63,0,0,0,324,50.69H276.11V20.63a20.63,20.63,0,1,0-41.26,0V50.69H187A20.63,20.63,0,0,0,169.12,61l-28.84,50h39.35l-73.71,98.46,22.44,38.87L231.18,111H290L180.66,257.06H133.44l35.69,61.82A20.63,20.63,0,0,0,187,329.2h47.85v31a77.3,77.3,0,1,0,97.93,74.5,20.63,20.63,0,1,0-41.26,0,36,36,0,1,1-36-36A20.63,20.63,0,0,0,276.11,378V329.2H324a20.63,20.63,0,0,0,17.87-10.32l35.69-61.82H342.61Z" transform="translate(-105.92)"/></svg>