<svg id="Layer_1" data-name="Layer 1" xmlns="http://www.w3.org/2000/svg" viewBox="0 0 512 351.34"><title>icon_faqtheme_2</title><path d="M334.15,358.91a29.64,29.64,0,1,0,29.64-29.64A29.68,29.68,0,0,0,334.15,358.91Zm43.12,0a13.47,13.47,0,1,1-13.47-13.47A13.49,13.49,0,0,1,377.26,358.91Z" transform="translate(0 -80.33)"/><path d="M137.43,329.27a29.64,29.64,0,1,0,29.64,29.64A29.68,29.68,0,0,0,137.43,329.27Zm0,43.11a13.47,13.47,0,1,1,13.47-13.47A13.49,13.49,0,0,1,137.43,372.39Z" transform="translate(0 -80.33)"/><path d="M503.92,167.59H473.31a39.42,39.42,0,0,1-5.81-7c-2.66-3.86-5.4-7.84-15.23-15.24-4.63-3.49-10-5.88-15.6-8.42a98.82,98.82,0,0,1-14-7.21,83.17,83.17,0,0,1-10-8.35c-4.86-4.5-9.89-9.15-16.22-12.68s-12.85-5.26-19.28-7a95.34,95.34,0,0,1-12.63-4,98.3,98.3,0,0,1-11.19-6.07c-6-3.6-12.25-7.32-19.42-9.19-8.79-2.29-17.56-1.62-25.29-1-3.38.26-6.58,0.5-9.59,0.5a55.35,55.35,0,0,1-7.5-.73c-5.29-.75-11.28-1.6-17.2.38-6.31,2.1-10.65,6.47-14.48,10.32a46,46,0,0,1-5.05,4.64,47.44,47.44,0,0,1-6.64,3.71c-4.53,2.24-9.67,4.79-13.55,9.34s-5.59,9.79-7.13,14.46a38.47,38.47,0,0,1-2.77,7,44.71,44.71,0,0,1-5.84,7.18c-3.14,3.38-6.38,6.87-8.27,11.33-3.37,7.93-3.36,11.93-3,16.34,0.05,0.62.09,1.18,0.11,1.76H183.89l-30-30a8.08,8.08,0,0,0-5.72-2.37H40.42a8.08,8.08,0,0,0-8.08,8.08v24.25H18.86a8.08,8.08,0,0,0-8.08,8.08v24.25H8.08A8.08,8.08,0,0,0,0,208v150.9A8.08,8.08,0,0,0,8.08,367H65.13A72.71,72.71,0,0,0,91.77,415.5h-19a8.08,8.08,0,1,0,0,16.17h355.7a8.08,8.08,0,1,0,0-16.17h-19a72.69,72.69,0,0,0-19.08-124.3l105.15-32.35a8.08,8.08,0,0,0,5.71-7.73v-35h2.7A8.08,8.08,0,0,0,512,208V175.67A8.08,8.08,0,0,0,503.92,167.59ZM225.56,155.8c0.79-1.86,2.95-4.18,5.24-6.65a58.46,58.46,0,0,0,7.91-10,50.47,50.47,0,0,0,4.2-10.12c1.18-3.57,2.29-6.95,4.08-9s5-3.63,8.42-5.33a60.16,60.16,0,0,0,9-5.12,58.33,58.33,0,0,0,7-6.31c2.81-2.82,5.46-5.49,8.13-6.38,2.31-.77,6-0.25,9.82.29a69.38,69.38,0,0,0,9.77.89c3.63,0,7.28-.28,10.82-0.55,7.1-.54,13.8-1.05,20,0.56,4.93,1.28,9.91,4.26,15.19,7.42a112,112,0,0,0,13.08,7,108.7,108.7,0,0,0,14.8,4.8c5.75,1.56,11.18,3,15.64,5.52,4.64,2.59,8.76,6.4,13.12,10.43a96.07,96.07,0,0,0,12,10A112.91,112.91,0,0,0,430,151.71c4.79,2.16,9.32,4.19,12.51,6.59,5.88,4.43,8.29,6.94,10.06,9.29H224c0-1.17-.09-2.18-0.17-3.07C223.59,162.14,223.48,160.71,225.56,155.8Zm-198.61,28H43.12v16.17H26.95V183.76Zm5.39,167.07H16.17V334.66H32.34v16.17h0Zm0-32.34H16.17V302.33H32.34v16.17h0Zm0-32.34H16.17V270H32.34v16.17h0Zm32.34,8.08v56.59H48.51V261.9a8.08,8.08,0,0,0-8.08-8.08H16.17V216.09H130.29l8.76,70.06H72.76A8.08,8.08,0,0,0,64.67,294.24Zm-5.39-94.32V183.76H75.45v16.17H59.28Zm32.34,0V183.76h16.17v16.17H91.62Zm32.34,0V183.76h10.13L160,209.63l10.85,84.66a72.23,72.23,0,0,0-15.17-5.83L145.45,207a8.09,8.09,0,0,0-8-7.08H124ZM91.77,302.32a73.38,73.38,0,0,0-10.93,10.93V302.32H91.77ZM137.43,415.5A56.59,56.59,0,1,1,194,358.91,56.65,56.65,0,0,1,137.43,415.5Zm45.66,0A72.71,72.71,0,0,0,209.73,367h81.76a72.72,72.72,0,0,0,26.64,48.51h-135Zm27.1-64.67V313.1H291v37.73H210.19Zm210.19,8.08a56.59,56.59,0,1,1-56.59-56.59A56.65,56.65,0,0,1,420.38,358.91Zm64.67-113.76L305.7,300.34a8.07,8.07,0,0,0-6.58-3.4h-97A8.08,8.08,0,0,0,194,305v2.7s-5.05-.11-5.23-0.28l-11.71-91.34h308v29.06h0Zm10.78-45.23H173.12l-30-30a8.08,8.08,0,0,0-5.72-2.37H48.51V151.42h96.36l30,30a8.08,8.08,0,0,0,5.72,2.37H495.83v16.17h0Z" transform="translate(0 -80.33)"/><path d="M234.44,259.21H363.79a8.08,8.08,0,0,0,0-16.17H234.44A8.08,8.08,0,0,0,234.44,259.21Z" transform="translate(0 -80.33)"/></svg>