<svg id="Слой_1" data-name="Слой 1" xmlns="http://www.w3.org/2000/svg" viewBox="0 0 45.6 48"><defs><style>.cls-1{fill:#246a2e;}</style></defs><title>icon_account_docs</title><path class="cls-1" d="M465.8,275.2h20a0.8,0.8,0,1,0,0-1.6h-20a0.8,0.8,0,1,0,0,1.6h0Zm0,0" transform="translate(-457 -256)"/><path class="cls-1" d="M465.8,268.8h8a0.8,0.8,0,0,0,0-1.6h-8a0.8,0.8,0,0,0,0,1.6h0Zm0,0" transform="translate(-457 -256)"/><path class="cls-1" d="M465.8,281.6h20a0.8,0.8,0,0,0,0-1.6h-20a0.8,0.8,0,0,0,0,1.6h0Zm0,0" transform="translate(-457 -256)"/><path class="cls-1" d="M479.4,286.4H465.8a0.8,0.8,0,0,0,0,1.6h13.6a0.8,0.8,0,0,0,0-1.6h0Zm0,0" transform="translate(-457 -256)"/><path class="cls-1" d="M477,292.8H465.8a0.8,0.8,0,1,0,0,1.6H477a0.8,0.8,0,1,0,0-1.6h0Zm0,0" transform="translate(-457 -256)"/><path class="cls-1" d="M494.6,283.49V267.67L482.93,256H457v48h35.2a10.39,10.39,0,0,0,2.4-20.51h0Zm-11.2-24.76,8.47,8.47H483.4v-8.47Zm3.27,43.67H458.6V257.6h23.2v11.2H493v14.43c-0.27,0-.54,0-0.8,0a10.41,10.41,0,0,0-10.4,10.4c0,0.32,0,.63,0,0.95l0,0.22c0,0.3.08,0.61,0.14,0.9l0,0.11c0.06,0.27.13,0.54,0.21,0.8l0.06,0.2c0.09,0.28.19,0.56,0.3,0.83l0.07,0.15c0.1,0.24.22,0.47,0.34,0.69l0.09,0.16c0.14,0.25.29,0.5,0.45,0.74l0.11,0.16c0.15,0.21.3,0.42,0.46,0.62l0.09,0.11c0.19,0.22.38,0.44,0.58,0.64l0.15,0.15c0.2,0.19.4,0.38,0.61,0.55l0.06,0c0.22,0.19.46,0.36,0.7,0.53l0.18,0.12,0.18,0.12h0Zm5.54,0a8.8,8.8,0,1,1,0-17.6c0.25,0,.5,0,0.74,0l0.73,0.1L494,285a8.8,8.8,0,0,1-1.82,17.41h0Zm0,0" transform="translate(-457 -256)"/><path class="cls-1" d="M496.34,289.15l-4.48,6.43L488.71,293a0.8,0.8,0,0,0-1,1.24l3.83,3.14a0.79,0.79,0,0,0,.5.18h0.11a0.81,0.81,0,0,0,.55-0.34l5-7.14a0.8,0.8,0,1,0-1.31-.91h0Zm0,0" transform="translate(-457 -256)"/></svg>