<svg id="Capa_1" data-name="Capa 1" xmlns="http://www.w3.org/2000/svg" viewBox="0 0 372.95 424.49"><defs><style>.cls-1{fill:#fff;}</style></defs><title>icon_investors_advantages_3</title><g id="iconos"><path class="cls-1" d="M323,278.83c13,2.34,27.87-10.83,34-30.84a53.51,53.51,0,0,0,1.45-27.26,350.67,350.67,0,0,1-35.22,15.63q-8,3.07-16.79,5.89a322.78,322.78,0,0,1-99.14,15.93,289.3,289.3,0,0,1-97.06-17.13c-6.22-2.21-12.15-4.54-17.83-7A327.72,327.72,0,0,1,59.1,217.76c-2.68,8.41-2.72,19.2.67,30.24,6,19.53,20.3,32.53,33.07,31,0.64,23.81,2.07,45.43,5.07,51.84C105.47,347,170.41,416,180,420.75s57.38,5.18,65.74,0S313.45,348,319.22,330.8C321.49,324,322.52,302.48,323,278.83Z" transform="translate(-25.77)"/><path class="cls-1" d="M380.34,143.44c-5.9,9.56-20,23.63-51.32,36.79-0.6.25-7.33,3.18-9.42-2.19-2.3-5.9,1.31-9.71,3.75-10.73,30.73-12.9,33.73-26,38.24-32.06-5-19.5-18.11-79.9-96.75-104.49V143.44a28.72,28.72,0,0,1-28.69,28.69H188.33a28.72,28.72,0,0,1-28.69-28.69V30.33c-66.85,19.14-90.42,79.77-97.09,106a4.5,4.5,0,0,1,.73.91,17.59,17.59,0,0,0,1,1.58c3.39,4.76,16.18,19.81,51.1,34.48,2.44,1,5.45,5.27,2.54,11.36-3.29,6.88-8.37,4.86-9,4.61C77.4,176,62.64,160.59,56.29,153H25.77v20.32s16.81,14.47,45.42,29.83c6.52,3.5,13.61,7,21.32,10.45q3.9,1.74,8,3.43c29.36,12.09,65.83,22,106.95,22s91.82-14.22,121.19-25c2.9-1.06,5.75-2.14,8.5-3.23,9.48-3.77,15.85-7.67,23.51-11.46,25.57-12.7,38.06-24.06,38.06-24.06V143.44H380.34Z" transform="translate(-25.77)"/><path class="cls-1" d="M188.33,153h47.81a9.57,9.57,0,0,0,9.56-9.56V9.56A9.57,9.57,0,0,0,236.14,0H188.33a9.57,9.57,0,0,0-9.56,9.56V143.44A9.57,9.57,0,0,0,188.33,153Z" transform="translate(-25.77)"/></g></svg>