<svg id="Слой_1" data-name="Слой 1" xmlns="http://www.w3.org/2000/svg" viewBox="0 0 113.49 134.5"><defs><style>.cls-1{fill:#23692b;}</style></defs><title>icon_advantages_1</title><path class="cls-1" d="M205.51,250.38a57.27,57.27,0,0,0-9.72-7.81l3.79-6.57,4.24,2.45c0.33,0.19,3.11-3.06,2.1-3.64l-12.05-7c-1-.58-3.11,3.06-2.1,3.64l4.17,2.41-3.78,6.55a56.36,56.36,0,0,0-24.67-6.64v-0.25a10.51,10.51,0,1,0-4.2,0v0.25a56.74,56.74,0,1,0,42.23,16.58h0Zm-46.43-27.13a6.3,6.3,0,1,1,8.41,5.94v-5.94h-4.2v5.94a6.31,6.31,0,0,1-4.2-5.94h0ZM165.38,343a52.54,52.54,0,1,1,52.54-52.54A52.6,52.6,0,0,1,165.38,343h0Zm0,0" transform="translate(-108.64 -212.75)"/><path class="cls-1" d="M206.57,265.19l-3.58,2.2,0.18,0.3a44.12,44.12,0,1,1-15-15l0.28,0.17,2.2-3.58-0.23-.14A48.32,48.32,0,1,0,206.7,265.4l-0.13-.21h0Zm0,0" transform="translate(-108.64 -212.75)"/><path class="cls-1" d="M194.8,257.61l0.12,0.11a44.91,44.91,0,0,1,3.21,3.21l0.14,0.16,3.13-2.8-0.14-.16a48.87,48.87,0,0,0-3.54-3.53l-0.13-.11-2.8,3.13h0Zm0,0" transform="translate(-108.64 -212.75)"/><path class="cls-1" d="M178.5,252.79a39.69,39.69,0,0,0-11-2.16c-1.39-.07-2.78,0-4.22,0v40.74l27.37,27.37c0.41,0.41,1.49,1.34,1.49,1.34s1.08-.93,1.49-1.34a40,40,0,0,0,10.5-38,2,2,0,0,0-.06-0.26,39.65,39.65,0,0,0-3.66-9.21,2,2,0,0,0-.22-0.39,40.08,40.08,0,0,0-5.33-7.34,2,2,0,0,0-.2-0.24l-0.13-.12A40,40,0,0,0,178.8,252.9l-0.3-.11h0Zm4.48,6.63-15.5,15.5v-6.67l11-11a35.54,35.54,0,0,1,4.51,2.16h0Zm7.21,5.4-22.71,22.71v-6.67l19.1-19.1a36,36,0,0,1,3.61,3.05h0Zm5.62,7-23.08,23.08-3.33-3.33L193,267.92a36,36,0,0,1,2.77,3.89h0Zm3.88,8.73L179,301.19l-3.33-3.33,22.18-22.18a35.4,35.4,0,0,1,1.81,4.86h0Zm1.42,10c0,0.42,0,.84,0,1.25L185.35,307.5,182,304.17l18.73-18.73a35.78,35.78,0,0,1,.36,5.07h0ZM174,255.82l-6.49,6.49v-7.47a35.58,35.58,0,0,1,6.49,1h0Zm18.12,58.42-3.77-3.77L200.2,298.6a35.43,35.43,0,0,1-8.11,15.64h0Zm0,0" transform="translate(-108.64 -212.75)"/><rect class="cls-1" x="196.62" y="225.17" width="4.2" height="15.83" transform="translate(-211.13 75.91) rotate(-60)"/></svg>