<svg id="Слой_1" data-name="Слой 1" xmlns="http://www.w3.org/2000/svg" viewBox="0 0 95.24 93.48"><defs><style>.cls-1{fill:#2aa345;stroke:#fff;stroke-miterlimit:10;}</style></defs><title>icon_edit</title><path class="cls-1" d="M522.88,319.92H435.36a3.29,3.29,0,0,0-3.28,3.28,3.35,3.35,0,0,0,3.28,3.28H523a3.29,3.29,0,0,0,3.28-3.28,3.36,3.36,0,0,0-3.36-3.28h0Zm0,0" transform="translate(-431.5 -233.5)"/><path class="cls-1" d="M432.08,290.88L432,306.48a3.39,3.39,0,0,0,1,2.4,3.2,3.2,0,0,0,2.32,1l15.52-.08a3.21,3.21,0,0,0,2.32-1l53.6-53.6a3.38,3.38,0,0,0,0-4.72L491.36,235a3.38,3.38,0,0,0-4.72,0l-10.72,10.8L433,288.56a3.57,3.57,0,0,0-1,2.32h0ZM489,242l10.8,10.8-6.08,6.08L483,248.08Zm-50.32,50.32,39.52-39.52L489,263.6,449.52,303l-10.88.08Zm0,0" transform="translate(-431.5 -233.5)"/></svg>