<svg id="Слой_1" data-name="Слой 1" xmlns="http://www.w3.org/2000/svg" viewBox="0 0 18.84 19"><defs><style>.cls-1{fill:#fff;stroke:#fff;stroke-miterlimit:10;}</style></defs><title>icon_logout</title><path class="cls-1" d="M307.09,421.41a0.33,0.33,0,0,0,0-.25,0.34,0.34,0,0,0-.07-0.11l-3.86-3.86a0.32,0.32,0,0,0-.45.46L306,421h-9.83a0.32,0.32,0,1,0,0,.64H306l-3.31,3.31a0.32,0.32,0,1,0,.45.45l3.86-3.86a0.32,0.32,0,0,0,.07-0.1h0Zm0,0" transform="translate(-288.78 -411.79)"/><path class="cls-1" d="M300.53,424.1a0.32,0.32,0,0,0-.32.32v5.22H289.92V412.93h10.28v5.22a0.32,0.32,0,0,0,.64,0v-5.54a0.32,0.32,0,0,0-.32-0.32H289.6a0.32,0.32,0,0,0-.32.32V430a0.32,0.32,0,0,0,.32.32h10.93a0.32,0.32,0,0,0,.32-0.32v-5.54a0.32,0.32,0,0,0-.32-0.32h0Zm0,0" transform="translate(-288.78 -411.79)"/></svg>