<svg id="Layer_1" data-name="Layer 1" xmlns="http://www.w3.org/2000/svg" viewBox="0 0 512 494.1"><defs><style>.cls-1{fill:#fff;}</style></defs><title>icon_about_advantages_2</title><path class="cls-1" d="M507,377.48l-19.1-11.43a4.06,4.06,0,0,1,.19-7.07l19.67-10.42a8,8,0,0,0-1.95-14.82l-21.7-5a4.06,4.06,0,0,1-2-6.78l15.49-16a8,8,0,0,0-6.43-13.49l-22.17,2a4.06,4.06,0,0,1-4-5.83l9.79-20a8,8,0,0,0-10.29-10.84L444,266.57a4.06,4.06,0,0,1-5.61-4.3l3.13-22a8,8,0,0,0-13.13-7.13l-16.77,14.63a4.06,4.06,0,0,1-6.67-2.36l-3.83-21.93a8,8,0,0,0-14.7-2.72L375,239.81a4.06,4.06,0,0,1-7.07-.19L357.51,220a8,8,0,0,0-14.82,1.95l-5,21.7a4.06,4.06,0,0,1-6.78,2l-16-15.49a8,8,0,0,0-13.49,6.44l2,22.17a4.06,4.06,0,0,1-5.83,4l-20-9.79a8,8,0,0,0-11.47,6.82l-5.6-12.49a4.45,4.45,0,0,1,4.61-6.24l24.23,3a8.75,8.75,0,0,0,7.55-14.55l-16.39-18.1A4.45,4.45,0,0,1,283,204l24-4.65a8.75,8.75,0,0,0,2.69-16.17L288.49,171a4.45,4.45,0,0,1,.06-7.76l21.36-11.83a8.75,8.75,0,0,0-2.44-16.21l-23.9-5a4.45,4.45,0,0,1-2.34-7.39L297.89,105a8.75,8.75,0,0,0-7.33-14.66l-24.28,2.62a4.45,4.45,0,0,1-4.51-6.31L272.1,64.51a8.75,8.75,0,0,0-11.5-11.68l-22.28,10a4.45,4.45,0,0,1-6.24-4.6l3-24.23a8.75,8.75,0,0,0-14.55-7.55l-18.1,16.39a4.45,4.45,0,0,1-7.36-2.45l-4.65-24a8.75,8.75,0,0,0-16.17-2.69L162.09,34.88a4.45,4.45,0,0,1-7.76-.06L142.5,13.46a8.75,8.75,0,0,0-16.21,2.44l-5,23.9a4.45,4.45,0,0,1-7.39,2.34L96,25.48a8.75,8.75,0,0,0-14.66,7.33L84,57.09a4.45,4.45,0,0,1-6.31,4.51L55.56,51.27a8.75,8.75,0,0,0-11.68,11.5l10,22.28a4.45,4.45,0,0,1-4.61,6.24L25,88.3a8.75,8.75,0,0,0-7.55,14.55L33.86,121a4.45,4.45,0,0,1-2.45,7.36L7.44,133a8.75,8.75,0,0,0-2.69,16.17l21.18,12.15a4.45,4.45,0,0,1-.06,7.76L4.51,180.87A8.75,8.75,0,0,0,7,197.08l23.9,5a4.45,4.45,0,0,1,2.34,7.39L16.53,227.34A8.75,8.75,0,0,0,23.86,242l24.28-2.62a4.45,4.45,0,0,1,4.51,6.31L42.32,267.82a8.75,8.75,0,0,0,11.5,11.68l22.28-10a4.45,4.45,0,0,1,6.24,4.61l-3,24.23A8.75,8.75,0,0,0,93.9,305.9L112,289.51a4.45,4.45,0,0,1,7.36,2.45l4.65,24a8.75,8.75,0,0,0,16.17,2.69l12.15-21.18a4.45,4.45,0,0,1,7.76.06l11.83,21.36a8.75,8.75,0,0,0,16.21-2.44l5-23.9a4.45,4.45,0,0,1,7.39-2.34l17.85,16.66A8.75,8.75,0,0,0,233,299.51l-2.62-24.28a4.45,4.45,0,0,1,6.31-4.51L258.86,281a8.72,8.72,0,0,0,12.4-7.29l4.24,9.95a4.06,4.06,0,0,1-4.3,5.61l-22-3.13A8,8,0,0,0,242,299.31l14.63,16.77a4.06,4.06,0,0,1-2.36,6.66l-21.93,3.83a8,8,0,0,0-2.72,14.7l19.1,11.43a4.06,4.06,0,0,1-.18,7.07L228.9,370.2a8,8,0,0,0,2,14.82l21.7,5a4.06,4.06,0,0,1,2,6.78l-15.49,16a8,8,0,0,0,6.44,13.49l22.17-2a4.06,4.06,0,0,1,4,5.83l-9.79,20a8,8,0,0,0,10.29,10.84l20.48-8.73a4.06,4.06,0,0,1,5.61,4.3l-3.13,22a8,8,0,0,0,13.13,7.13L325,471a4.06,4.06,0,0,1,6.67,2.36l3.83,21.93a8,8,0,0,0,14.7,2.72L361.66,479a4.06,4.06,0,0,1,7.07.18l10.42,19.67A8,8,0,0,0,394,496.86l5-21.7a4.06,4.06,0,0,1,6.78-2l16,15.49a8,8,0,0,0,13.49-6.43l-2-22.17a4.06,4.06,0,0,1,5.83-4l20,9.79a8,8,0,0,0,10.84-10.29l-8.73-20.48a4.06,4.06,0,0,1,4.3-5.61l22,3.13a8,8,0,0,0,7.13-13.13L480,402.67a4.06,4.06,0,0,1,2.36-6.67l21.93-3.83A8,8,0,0,0,507,377.48ZM157.21,242.12a76,76,0,1,1,76-76A76,76,0,0,1,157.21,242.12ZM367,428.61a69.24,69.24,0,1,1,70.52-67.94A69.24,69.24,0,0,1,367,428.61Z" transform="translate(0 -8.95)"/></svg>