<svg id="Слой_1" data-name="Слой 1" xmlns="http://www.w3.org/2000/svg" viewBox="0 0 228.84 228.84"><defs><style>.cls-1{fill:#2ca346;}</style></defs><title>icon_account_docs_dowload</title><path class="cls-1" d="M386.45,359.09V344.71L365,344.66v21.58a28.61,28.61,0,0,0,28.6,28.61h21.27L415,373.39H400.76a14.31,14.31,0,0,1-14.31-14.3h0ZM393.6,166A28.6,28.6,0,0,0,365,194.6v21.59l21.45-.06V201.75a14.31,14.31,0,0,1,14.31-14.3h14.19L414.88,166H393.6Zm-7.15,64.35H365v42.91h21.45V230.35ZM472.27,166H429.36v21.45h42.91V166ZM386.45,287.58H365v42.9h21.45v-42.9Zm42.91,107.27h42.91V373.39H429.36v21.45Zm143-121.58h21.45V230.35H572.39v42.91ZM565.24,166H544l-0.09,21.45h14.2a14.31,14.31,0,0,1,14.31,14.3v14.38l21.45,0.05V194.6A28.6,28.6,0,0,0,565.24,166h0Zm7.15,164.48h21.45v-42.9H572.39v42.9Zm0,28.61a14.31,14.31,0,0,1-14.31,14.3H543.89L544,394.84h21.26a28.61,28.61,0,0,0,28.61-28.61V344.66l-21.45.06v14.38Zm-85.82,35.76h42.91V373.39H486.57v21.45Zm0-207.4h42.91V166H486.57v21.45Zm34.19,93H500.87V237.51a7.15,7.15,0,0,0-7.15-7.15H465.12a7.15,7.15,0,0,0-7.15,7.15v42.91H438.08c-7.77,0-10.93,5.17-7.06,11.47l41.34,40.89c3.88,6.31,10.24,6.31,14.12,0l41.34-40.89c3.88-6.3.7-11.47-7.06-11.47h0Zm0,0" transform="translate(-365 -166)"/></svg>