<svg id="Слой_1" data-name="Слой 1" xmlns="http://www.w3.org/2000/svg" viewBox="0 0 267.37 225.38"><defs><style>.cls-1{fill:#2aa345;}</style></defs><title>icon_calendar</title><path class="cls-1" d="M529.72,305.59a7.2,7.2,0,0,1-7.2,7.2H488a7.2,7.2,0,0,1,0-14.4h34.49a7.2,7.2,0,0,1,7.2,7.2h0ZM505.27,167.65a7.2,7.2,0,0,0,7.2-7.2V145.2a7.2,7.2,0,0,0-14.4,0v15.25a7.2,7.2,0,0,0,7.2,7.2h0Zm-24.44,36.75a7.2,7.2,0,0,0,7.2,7.2h34.49a7.2,7.2,0,0,0,0-14.4H488a7.2,7.2,0,0,0-7.2,7.2h0Zm41.69,43.39H488a7.2,7.2,0,0,0,0,14.4h34.49a7.2,7.2,0,0,0,0-14.4h0ZM562,167.65a7.2,7.2,0,0,0,7.2-7.2V145.2a7.2,7.2,0,0,0-14.4,0v15.25a7.2,7.2,0,0,0,7.2,7.2h0Zm-6.15,44h34.5a7.2,7.2,0,0,0,0-14.4h-34.5a7.2,7.2,0,0,0,0,14.4h0Zm0,50.59h34.5a7.2,7.2,0,0,0,0-14.4h-34.5a7.2,7.2,0,0,0,0,14.4h0Zm-22.2-94.55a7.2,7.2,0,0,0,7.2-7.2V145.2a7.2,7.2,0,0,0-14.4,0v15.25a7.2,7.2,0,0,0,7.2,7.2h0Zm22.2,145.14h34.5a7.2,7.2,0,0,0,0-14.4h-34.5a7.2,7.2,0,0,0,0,14.4h0Zm-101.11-65H420.23a7.2,7.2,0,0,0,0,14.4h34.49a7.2,7.2,0,0,0,0-14.4h0Zm0,50.59H420.23a7.2,7.2,0,0,0,0,14.4h34.49a7.2,7.2,0,0,0,0-14.4h0Zm29.41-137.94V145.2a7.2,7.2,0,0,0-14.4,0v15.25a7.2,7.2,0,1,0,14.4,0h0Zm-29.41,36.75H420.23a7.2,7.2,0,1,0,0,14.4h34.49a7.2,7.2,0,0,0,0-14.4h0Zm177-50.59H597.52V145.2a7.2,7.2,0,0,0-14.4,0v15.25a7.2,7.2,0,0,0,14.37.56h27.05V349H378.79a7.2,7.2,0,0,0,0,14.4h253a7.2,7.2,0,0,0,7.2-7.2V153.81a7.2,7.2,0,0,0-7.2-7.2h0Zm-253,216.77a7.2,7.2,0,0,0,7.2-7.2V161H413a7.2,7.2,0,0,0,14.38-.56V145.2a7.2,7.2,0,0,0-14.4,0v1.41H378.79a7.2,7.2,0,0,0-7.2,7.2V356.18a7.2,7.2,0,0,0,7.2,7.2h0Zm69.78-195.73a7.2,7.2,0,0,0,7.2-7.2V145.2a7.2,7.2,0,0,0-14.4,0v15.25a7.2,7.2,0,0,0,7.2,7.2h0Zm0,0" transform="translate(-371.59 -138)"/></svg>