<svg id="Layer_1" data-name="Layer 1" xmlns="http://www.w3.org/2000/svg" viewBox="0 0 325.95 499.41"><defs><style>.cls-1{fill:#2ca346;}</style></defs><title>icon_payterminal</title><path class="cls-1" d="M365.7,214.59H146.31V455.31H365.7V214.59ZM212.3,433.9H167.72V389.32H212.3V433.9Zm0-66H167.72V323.32H212.3v44.58Zm66,66H233.71V389.32h44.58V433.9Zm0-66H233.71V323.32h44.58V367.9Zm66,66H299.7V389.32h44.58V433.9Zm0-66H299.7V323.32h44.58V367.9Zm0-66H167.72V236H344.28v65.91Z" transform="translate(-93.03 -8.09)"/><path class="cls-1" d="M322,35.22L289,14.74,256,35.22,223,14.74,190,35.22,146.31,8.09V93.86H93V507.5H419V93.86H365.69V8.09ZM167.72,46.58L190,60.42l33-20.48,33,20.48,33-20.48,33,20.48,22.29-13.84V157.87H167.72V46.58Zm229.84,68.68V486.09H114.44V115.27h31.87v64H365.69v-64h31.87Z" transform="translate(-93.03 -8.09)"/></svg>