<svg id="Capa_1" data-name="Capa 1" xmlns="http://www.w3.org/2000/svg" viewBox="0 0 387.5 387.46"><defs><style>.cls-1{fill:#2ca346;}</style></defs><title>icon_about_targets_2</title><path class="cls-1" d="M331.82,51.24a9.11,9.11,0,0,0,3-2,2.82,2.82,0,0,1,1.86-.47c3.56,0,9.88,2.72,16,8.8a33.25,33.25,0,0,1,8.12,12.31c0.92,2.83.74,4.62,0.31,5.36l-0.18.16c-0.15.14-.3,0.29-0.44,0.45-0.65.68-4.1,4.17-9.77,9.89l-25.2-28.18Z" transform="translate(0 -0.02)"/><path class="cls-1" d="M69.87,139.95A69.91,69.91,0,0,1,2.54,51.39l33.79,33.8a5.31,5.31,0,0,0,4.08,1.57l39.18-2.09a5.38,5.38,0,0,0,5.08-5.08l2.09-39.18a5.36,5.36,0,0,0-1.57-4.08L51.4,2.53A70,70,0,0,1,136,93.34c-0.13.36-.28,0.7-0.43,1.05s-0.36.82-.52,1.23a68.66,68.66,0,0,1-37.09,38.55c-0.42.19-.83,0.34-1.25,0.5l-1,.39a70.29,70.29,0,0,1-25.81,4.89h0Z" transform="translate(0 -0.02)"/><path class="cls-1" d="M108.2,141.09c0.75-.4,1.49-0.83,2.23-1.25q2-1.14,3.87-2.37c0.72-.47,1.44-0.94,2.14-1.43,1.3-.91,2.56-1.87,3.81-2.85,0.58-.46,1.18-0.9,1.75-1.38,1.77-1.49,3.49-3,5.14-4.68s3.38-3.59,4.95-5.49c0.47-.57.91-1.16,1.37-1.75,1.11-1.42,2.16-2.87,3.17-4.37,0.43-.64.87-1.28,1.29-1.93q1.74-2.76,3.27-5.67c0.15-.29.32-0.55,0.46-0.84,0-.06.07-0.11,0.1-0.18l57.33,57.33-34.83,34.82L107,141.78C107.39,141.56,107.79,141.31,108.2,141.09Z" transform="translate(0 -0.02)"/><polygon class="cls-1" points="270.29 20.98 384.81 135.51 319.5 187.37 218.42 86.29 270.29 20.98"/><path class="cls-1" d="M80.69,353l-0.18.17L78.67,355a5.09,5.09,0,0,0-1.11.56,19.62,19.62,0,0,1-24.17-2.47,19.28,19.28,0,0,1-2.5-24.1,4.8,4.8,0,0,0,.54-1.12L248.13,131.22,275,158.14,239.5,193.79a5.32,5.32,0,0,0-2.05,1.23L195.09,237.5a5.27,5.27,0,0,0-1.23,2.06C133,300.59,82,351.69,80.69,353Z" transform="translate(0 -0.02)"/><path class="cls-1" d="M241.67,206.83l37.55,37.56a79,79,0,0,0-33.63,36L206.9,241.7Z" transform="translate(0 -0.02)"/><path class="cls-1" d="M367,268a69.86,69.86,0,0,0-113.37,21l-0.48,1.15c-0.22.51-.45,1-0.62,1.53a5.26,5.26,0,0,1-.44.94A70,70,0,1,0,367,268Zm-9.07,41.45-9.44,35.23a5.36,5.36,0,0,1-3.8,3.8l-35.24,9.45a5.23,5.23,0,0,1-1.39.19,5.4,5.4,0,0,1-3.8-1.57l-25.79-25.8a5.38,5.38,0,0,1-1.39-5.19l9.43-35.23a5.36,5.36,0,0,1,3.8-3.8l35.24-9.44a5.39,5.39,0,0,1,5.2,1.39l25.8,25.79A5.37,5.37,0,0,1,357.92,309.42Z" transform="translate(0 -0.02)"/><polygon class="cls-1" points="296.08 296.06 288.25 325.29 309.65 346.7 338.9 338.86 346.74 309.62 325.32 288.22 296.08 296.06"/></svg>