<svg id="Layer_1" data-name="Layer 1" xmlns="http://www.w3.org/2000/svg" viewBox="0 0 511.99 352.24"><defs><style>.cls-1{fill:#fff;}</style></defs><title>icon_account_nav_1</title><path class="cls-1" d="M512,261.2l-30.94-20.89L437.31,165.2l-107.37.1L132.19,80.74A10.66,10.66,0,0,0,120.46,83L99.13,104.33l0,0c-0.21.21-.41,0.43-0.59,0.66l-0.14.16c-0.19.23-.36,0.46-0.52,0.7l-0.1.16c-0.13.2-.27,0.41-0.38,0.63l-0.12.21c-0.12.24-.24,0.48-0.35,0.73a2.15,2.15,0,0,0-.12.28c-0.1.24-.19,0.49-0.27,0.73l-0.07.26a7.16,7.16,0,0,0-.18.69,2.55,2.55,0,0,0-.06.25,8.06,8.06,0,0,0-.13.87c0,0.07,0,.14,0,0.22,0,0.31,0,.63,0,0.94v64a10.66,10.66,0,1,0,21.33,0V128.68L226.7,180.15,277.33,285v29.56H10.67a10.67,10.67,0,0,0,0,21.34H21.34V378.8A10.67,10.67,0,0,0,32,389.47H65.06a53.33,53.33,0,0,0,104.62-.53H363.62a53.32,53.32,0,0,0,104.7,0h43.45Zm-55.87-21.34H384V186.59l41.06,0Zm-93.47-53.26v53.26H341.4l0-53.24h21.22Zm-105.29,8,20,9.39v32Zm35.17-7L124.94,108.68l5.5-5.49L320,184.24V314.53H298.65V197.2A10.64,10.64,0,0,0,292.53,187.56ZM65.06,368.12H42.67V335.87h43A53.32,53.32,0,0,0,65.06,368.12Zm52.26,42.67a32,32,0,1,1,32-32A32,32,0,0,1,117.32,410.79Zm52.15-43.2A53.31,53.31,0,0,0,149,335.87H320v31.72H169.46ZM416,410.79a32,32,0,1,1,32-32A32,32,0,0,1,416,410.79Zm52.16-43.2a53.34,53.34,0,0,0-104.3,0H341.31l0.08-106.39H473.87l16.78,11.33-0.06,31.06H480a10.67,10.67,0,1,0,0,21.34h10.58l-0.08,42.66H468.12Z" transform="translate(-0.01 -79.88)"/><path class="cls-1" d="M416,368.12a10.67,10.67,0,1,0,10.67,10.67A10.66,10.66,0,0,0,416,368.12Z" transform="translate(-0.01 -79.88)"/><path class="cls-1" d="M117.32,368.12A10.67,10.67,0,1,0,128,378.79,10.67,10.67,0,0,0,117.32,368.12Z" transform="translate(-0.01 -79.88)"/><path class="cls-1" d="M53.43,250.75c0,1.39,0,13.8,8.91,22.94,4,4,11.15,8.84,23,8.84s18.92-4.81,22.87-8.84c8.8-9,9.05-21.2,9-23.22v-42.6a10.66,10.66,0,0,0-21.33,0V250.7a15.3,15.3,0,0,1-1.61,6.22c-1.14,2.12-3.1,4.28-9,4.28s-7.92-2.21-9-4.14a14.41,14.41,0,0,1-1.58-6v0.14h0c0-.22,0-0.45,0-0.67a10.66,10.66,0,0,0-21.33,0c0,0.08,0,.15,0,0.22h0Z" transform="translate(-0.01 -79.88)"/></svg>