<svg id="Слой_1" data-name="Слой 1" xmlns="http://www.w3.org/2000/svg" viewBox="0 0 43.2 48"><defs><style>.cls-1{fill:#2aa345;}</style></defs><title>icon_extend</title><path class="cls-1" d="M484.4,268.8a4.8,4.8,0,1,0-9.6,0v4h-4V288h17.6V272.8h-4v-4Zm-8,0a3.2,3.2,0,0,1,6.4,0v4h-6.4v-4Zm10.4,5.6v12H472.4v-12h14.4Zm0,0" transform="translate(-458 -256)"/><path class="cls-1" d="M478.8,282.29V284a0.8,0.8,0,1,0,1.6,0v-1.71a3.2,3.2,0,1,0-1.6,0h0Zm0.8-4.68a1.6,1.6,0,1,1-1.6,1.6,1.6,1.6,0,0,1,1.6-1.6h0Zm0,0" transform="translate(-458 -256)"/><path class="cls-1" d="M479.6,256a21.6,21.6,0,0,0-1.85,43.12l-3.52,3.52a0.8,0.8,0,0,0,1.13,1.13l4.8-4.8a0.79,0.79,0,0,0,.18-0.26,0.83,0.83,0,0,0,0-.61,0.86,0.86,0,0,0-.18-0.26l-4.8-4.8a0.8,0.8,0,1,0-1.13,1.13l3.33,3.33a20,20,0,1,1,16.24-5.82,0.8,0.8,0,0,0,1.14,1.13A21.6,21.6,0,0,0,479.6,256h0Zm0,0" transform="translate(-458 -256)"/></svg>