<svg id="Layer_1" data-name="Layer 1" xmlns="http://www.w3.org/2000/svg" viewBox="0 0 512 436.55"><defs><style>.cls-1{fill:#2ca346;}</style></defs><title>icon_truck</title><path class="cls-1" d="M88.93,404.21a13.47,13.47,0,1,0,13.47,13.47A13.49,13.49,0,0,0,88.93,404.21Zm0,16.17a2.69,2.69,0,1,1,2.69-2.69A2.7,2.7,0,0,1,88.93,420.38Z" transform="translate(0 -37.73)"/><path class="cls-1" d="M315.28,404.21a13.47,13.47,0,1,0,13.47,13.47A13.49,13.49,0,0,0,315.28,404.21Zm0,16.17a2.69,2.69,0,1,1,2.69-2.69A2.7,2.7,0,0,1,315.28,420.38Z" transform="translate(0 -37.73)"/><path class="cls-1" d="M412.29,404.21a13.47,13.47,0,1,0,13.47,13.47A13.49,13.49,0,0,0,412.29,404.21Zm0,16.17a2.69,2.69,0,1,1,2.69-2.69A2.7,2.7,0,0,1,412.29,420.38Z" transform="translate(0 -37.73)"/><path class="cls-1" d="M94.32,296.42H62a8.08,8.08,0,1,0,0,16.17H94.32A8.08,8.08,0,1,0,94.32,296.42Z" transform="translate(0 -37.73)"/><path class="cls-1" d="M428.46,318H396.13a8.08,8.08,0,1,0,0,16.17h32.34A8.08,8.08,0,1,0,428.46,318Z" transform="translate(0 -37.73)"/><path class="cls-1" d="M503.92,199.41H409L155.85,62.32a29.64,29.64,0,1,0-37.29,33.57v25.38a8,8,0,0,0,2.07,5.39,8.07,8.07,0,0,0,6,13.47,2.69,2.69,0,1,1,0,5.39,8.08,8.08,0,1,0,0,16.17,18.85,18.85,0,0,0,7-36.37,8,8,0,0,0,1.1-4.05V106.41l199.41,169.5v85.19H221V239.83a8.08,8.08,0,1,0-16.17,0v88.93H188.63V304.51a8.08,8.08,0,0,0-8.08-8.08h-35V185.94a8.08,8.08,0,0,0-8.08-8.08H62a8.09,8.09,0,0,0-5.72,2.37L2.37,234.12A8.08,8.08,0,0,0,0,239.83V412.29a8.08,8.08,0,0,0,8.08,8.08H29.64a8.09,8.09,0,0,0,2.75-.48,56.41,56.41,0,0,0,17,38.21h-9a8.08,8.08,0,1,0,0,16.17H460.8a8.08,8.08,0,1,0,0-16.17h-9a56.38,56.38,0,0,0,16.46-48.43l8.33,8.33a8.08,8.08,0,1,0,11.43-11.43l-29.32-29.32h45.16a8.08,8.08,0,0,0,8.08-8.08V207.49A8.08,8.08,0,0,0,503.92,199.41ZM315.28,458.11a40.42,40.42,0,1,1,40.42-40.42A40.47,40.47,0,0,1,315.28,458.11Zm39.55-80.84h17.91a57,57,0,0,0-9,11.31A56.88,56.88,0,0,0,354.83,377.26Zm65.54-161.68v70.06H350.32V254l38.38-38.38h31.68ZM113.18,67.37a13.47,13.47,0,0,1,26.95,0v0a13.45,13.45,0,0,1-5.39,10.74V67.37a8.08,8.08,0,1,0-16.17,0V78.12A13.45,13.45,0,0,1,113.18,67.37Zm29.73,24.77a29.81,29.81,0,0,0,10.77-12.61L379.54,201.87l-43,43a8.08,8.08,0,0,0-2.37,5.72v4.08ZM204.8,344.93v16.17H188.63V344.93H204.8Zm-32.34-32.34v48.51H145.52V312.59h26.95Zm-43.12,48.51H16.17V280.25H94.32a8.08,8.08,0,0,0,8.08-8.08V194h26.95V361.09ZM65.33,194h20.9v70.06H16.17v-20.9ZM25.6,404.21H16.17V377.26H45.81Zm22.91,13.47a40.47,40.47,0,0,1,40.4-40.42h0A40.42,40.42,0,1,1,48.51,417.68Zm80,40.42a56.46,56.46,0,0,0,0-80.84H268.82L239.5,406.58A8.08,8.08,0,0,0,250.94,418l8.33-8.33a56.38,56.38,0,0,0,16.46,48.43H128.48Zm226.36,0a57,57,0,0,0,9-11.31,56.89,56.89,0,0,0,9,11.31H354.83Zm57.46,0a40.42,40.42,0,1,1,40.42-40.42A40.47,40.47,0,0,1,412.29,458.11Zm83.54-97H350.32V301.81h78.15a8.08,8.08,0,0,0,8.08-8.08V215.58h59.28V361.09Z" transform="translate(0 -37.73)"/></svg>