<svg id="Слой_1" data-name="Слой 1" xmlns="http://www.w3.org/2000/svg" viewBox="0 0 16 18.45"><defs><style>.cls-1,.cls-2{fill:#2ca346;}.cls-1{stroke:#000;stroke-linecap:round;stroke-linejoin:round;stroke-width:0;}</style></defs><title>icon_about_targets_3</title><line class="cls-1" x1="7.75" y1="18.45" x2="7.47" y2="18.45"/><path class="cls-2" d="M60.13-.25L52.38,1.28V7.95A10.82,10.82,0,0,0,60.13,18.2c4.81-1.59,8.25-5.68,8.25-10.26V1.28ZM67.52,8c0,3.92-3,7.65-7.31,9.08l-0.09,0-0.09,0A9.55,9.55,0,0,1,53.23,8V2.12l6.89-1.3,7.4,1.29V8Z" transform="translate(-52.38 0.25)"/><path class="cls-2" d="M53.73,8a9.1,9.1,0,0,0,6.39,8.63C64.19,15.29,67,11.75,67,8V2.48L60.13,1.27l-6.39,1.2V8Zm3.72-.92L60,9.4l4.33-4.15L65,5.8,60.65,10h0l0,0-0.55.53,0,0,0,0-3.2-2.86Z" transform="translate(-52.38 0.25)"/></svg>