<svg id="Режим_изоляции" data-name="Режим изоляции" xmlns="http://www.w3.org/2000/svg" viewBox="0 0 38.69 30"><defs><style>.cls-1{fill:#fff;}</style></defs><title>icon_account_nav_4</title><g id="_Группа_" data-name="&lt;Группа&gt;"><path id="_Контур_" data-name="&lt;Контур&gt;" class="cls-1" d="M480.65,293c0.08,0.1.08,0.11,0,.12l-1.35.13-1.83.14-0.92.05c-0.69,0-1.38.07-2,0-0.88,0-1.73,0-2.57-.08s-1.73-.11-2.59-0.19a50.31,50.31,0,0,1-6.05-.9,3.81,3.81,0,0,1-.94-0.31,0.43,0.43,0,0,1-.13,0,1.87,1.87,0,0,1-.45-0.53,1.22,1.22,0,0,1-.06-0.43,8.11,8.11,0,0,1,.24-1.55,10.56,10.56,0,0,1,1-2.81,4.87,4.87,0,0,1,2.37-2.37c0.79-.41,1.61-0.75,2.43-1.1a27.32,27.32,0,0,0,3.26-1.58l0.3-.18c0.06,0,.06-0.07,0-0.12a5.92,5.92,0,0,1-1.27-2.5,0.34,0.34,0,0,0-.09-0.15,5.39,5.39,0,0,1-1.41-2.76,3.91,3.91,0,0,1,0-1.4,0.5,0.5,0,0,1,.32-0.46,0.21,0.21,0,0,0,.18-0.26c0-.77,0-1.55,0-2.32a4.84,4.84,0,0,1,1.47-3.41,4.67,4.67,0,0,1,2.24-1.15c0.25-.06.51-0.09,0.77-0.13a7.74,7.74,0,0,1,3.35.36,4.49,4.49,0,0,1,2.79,3.23,5.9,5.9,0,0,1,.17,1.48c0,0.68,0,1.36,0,2a0.11,0.11,0,0,0,.11.14,0.41,0.41,0,0,1,.32.28,1.76,1.76,0,0,1,.12.6,5,5,0,0,1-1.45,3.76,0.47,0.47,0,0,0-.11.2,5.84,5.84,0,0,1-1.26,2.44c-0.07.08,0,.11,0,0.14a17.16,17.16,0,0,0,1.84,1l0.68,0.31c0.08,0,.09.07,0,0.15" transform="translate(-461.65 -266.74)"/><path id="_Составной_контур_" data-name="&lt;Составной контур&gt;" class="cls-1" d="M500.34,287.69a9,9,0,0,1-9,9.05,9.07,9.07,0,0,1-8.27-5.26,3.21,3.21,0,0,0-.39-0.85c-0.07-.56-0.28-1.09-0.35-1.65a10.39,10.39,0,0,1-.08-1.71,9.08,9.08,0,0,1,.24-1.7A9.35,9.35,0,0,1,483,284a8.92,8.92,0,0,1,.86-1.5,9,9,0,0,1,1.12-1.3,9.13,9.13,0,0,1,1.35-1.06,9,9,0,0,1,1.52-.79,8.74,8.74,0,0,1,1.64-.49A9.06,9.06,0,0,1,500.34,287.69Zm-9.06,7.14a7,7,0,0,0,2.48-.44,7.13,7.13,0,0,0,2.26-1.34,1.08,1.08,0,0,0-.1-1.71l-3.35-1.94a0.16,0.16,0,0,0-.19,0,2,2,0,0,1-2.13,0,0.21,0.21,0,0,0-.24,0l-3.3,1.91a1.07,1.07,0,0,0-.15,1.71A7.13,7.13,0,0,0,491.28,294.84Zm0.86-11.08c0,0.65,0,1.3,0,1.94a0.2,0.2,0,0,0,.11.2,2,2,0,0,1,1.07,1.85,0.19,0.19,0,0,0,.11.19l1,0.6,2.26,1.31a1.08,1.08,0,0,0,1.56-.69,6.93,6.93,0,0,0,0-2.71,7.07,7.07,0,0,0-2.44-4.23,6.87,6.87,0,0,0-2.34-1.31,1.07,1.07,0,0,0-1.4,1Q492.14,282.84,492.14,283.76Zm-1.71,0q0-.92,0-1.85a1.06,1.06,0,0,0-.8-1,1.32,1.32,0,0,0-.84.11,7.16,7.16,0,0,0-4.61,7.47,3.29,3.29,0,0,0,.15.83,1.08,1.08,0,0,0,1.51.55l3.25-1.87a0.3,0.3,0,0,0,.17-0.3,2,2,0,0,1,1-1.76,0.22,0.22,0,0,0,.13-0.22C490.43,285.05,490.43,284.41,490.43,283.77Zm1.7,3.92a0.84,0.84,0,0,0-.84-0.85,0.85,0.85,0,1,0,0,1.69A0.84,0.84,0,0,0,492.13,287.69Z" transform="translate(-461.65 -266.74)"/></g></svg>