<svg id="Слой_1" data-name="Слой 1" xmlns="http://www.w3.org/2000/svg" viewBox="0 0 23.45 17.8"><defs><style>.cls-1{fill:#fff;}</style></defs><title>icon_account_nav_2</title><path class="cls-1" d="M491,271.22H467.59V289H491v-17.8Zm-1.12,16.68H468.72V272.35h21.21V287.9Z" transform="translate(-467.59 -271.22)"/><path class="cls-1" d="M488.15,285.56L482.26,280l0.08-.07,5.78-5.19-0.75-.83-8,7.22-1.66-1.49-0.08-.06-6.34-5.67-0.75.84,5.94,5.3-0.08.08-5.83,5.46,0.77,0.82,6-5.6,0.07,0.06,1.6,1.43a0.58,0.58,0,0,0,.75,0l1.72-1.54,0.07,0.06,5.88,5.59Z" transform="translate(-467.59 -271.22)"/></svg>