<svg id="Режим_изоляции" data-name="Режим изоляции" xmlns="http://www.w3.org/2000/svg" viewBox="0 0 59.8 40.6"><defs><style>.cls-1{fill:#fff;}</style></defs><title>icon_account_nav_3</title><path class="cls-1" d="M476.75,292.1h24.4c0-.2.06-0.49,0.08-0.79a12.21,12.21,0,0,0-7.47-11.61l-0.69-.3,0.54-.52a7.52,7.52,0,0,0,2.4-5.48c0-4-3.32-7.5-7.1-7.5s-7.1,3.5-7.1,7.5a7.9,7.9,0,0,0,2.41,5.49l0.52,0.52-0.67.29A12.33,12.33,0,0,0,476.75,292.1ZM484,273.4c0-2.5,2.1-5.3,4.9-5.3s4.9,2.8,4.9,5.3-2.09,5.3-4.9,5.3S484,275.9,484,273.4Zm5,7.5a10.11,10.11,0,0,1,9.94,8.42L499,289.9H479l0.1-.59A10.11,10.11,0,0,1,489,280.9Z" transform="translate(-449.5 -259.5)"/><rect class="cls-1" x="8.86" y="19.2" width="15.74" height="2.2"/><rect class="cls-1" x="8.86" y="30.4" width="11.68" height="2.2"/><path class="cls-1" d="M449.5,259.5v40.6h59.8V259.5H449.5Zm57.6,38.4H451.7V261.7h55.4v36.2Z" transform="translate(-449.5 -259.5)"/><rect class="cls-1" x="8.86" y="8" width="15.74" height="2.2"/></svg>