<svg id="Capa_1" data-name="Capa 1" xmlns="http://www.w3.org/2000/svg" viewBox="0 0 365.31 346.6"><defs><style>.cls-1{fill:#fff;}</style></defs><title>icon_about_advantages_3</title><path class="cls-1" d="M246.2,333.35c-1.75-1.1-7.2-2.5-8.7-3.65l-30.75,20.2-25-25,21.5-34.25a31.83,31.83,0,0,1-1.35-3.25l-39.6-7,0.15-38.55,28.9-5L177,222.75c-12,9.8-26.7,15.6-42.4,15.6h-0.1a66.59,66.59,0,0,1-40.35-14h0l-14.65,14H50.8c-13.2,0-23.55,4.5-31.6,13.85C-4.35,279.4-.4,338,1.45,356H250.5ZM74.9,165.85A73,73,0,0,0,93.65,207.4a59.18,59.18,0,0,0,6.65,6.15,58.51,58.51,0,0,0,9.5,6.2,52.68,52.68,0,0,0,49.4,0,58.51,58.51,0,0,0,9.5-6.2,65.18,65.18,0,0,0,6.7-6.2,72.8,72.8,0,0,0,18.7-41.3c0.2,0,.35.05,0.55,0.05,10.4,0,18.85-9.7,18.85-21.65a22.71,22.71,0,0,0-7.85-17.55H66.55a22.71,22.71,0,0,0-7.85,17.55C58.7,155.45,65.75,164.4,74.9,165.85ZM365.3,269.1V252.45l-34.65-6.25a62.53,62.53,0,0,0-7.45-17.95l20.15-28.8-11.8-11.8-28.9,20.1a61.57,61.57,0,0,0-18-7.4l-6.15-34.6H261.91l-6.25,34.65a62.5,62.5,0,0,0-17.95,7.45l-28.8-20.15-11.8,11.8,20.1,28.9a61.58,61.58,0,0,0-7.4,17.95l-34.6,6.15v16.65l34.65,6.25a62.53,62.53,0,0,0,7.45,18l-20.2,28.8,11.8,11.8,28.9-20.1a61.59,61.59,0,0,0,17.95,7.4l6.15,34.6h16.65l6.25-34.65a62.5,62.5,0,0,0,18-7.45l28.8,20.15,11.8-11.8-20.1-28.9a61.55,61.55,0,0,0,7.4-18Zm-95.1,17.4a25.7,25.7,0,1,1,25.7-25.7A25.69,25.69,0,0,1,270.2,286.5ZM108.1,34.15C87.3,44.75,70.9,66,64.71,86.55L63.31,91H51.9v25H220.3V91H209.1l-1.4-4.4C201.5,66,185.1,45,164.3,34.35v54.4a16.73,16.73,0,0,1-1.6,6.2,15.72,15.72,0,0,1-13.8,8.6H123.7a15.69,15.69,0,0,1-15.4-13.4,8.2,8.2,0,0,1-.2-2.2V34.15h0ZM123.7,97h25a9.21,9.21,0,0,0,8.2-5,8.56,8.56,0,0,0,1.2-4.4V21.75a15.57,15.57,0,0,0-.8-4.4,12.65,12.65,0,0,0-11.6-8h-22a9.15,9.15,0,0,0-9.2,8.2c0,0.4-.2.8-0.2,1.2v68.8a10.06,10.06,0,0,0,1.6,5.4A9.75,9.75,0,0,0,123.7,97Z" transform="translate(0 -9.35)"/></svg>