<svg id="Capa_1" data-name="Capa 1" xmlns="http://www.w3.org/2000/svg" viewBox="0 0 97.39 63.96"><defs><style>.cls-1{fill:#fff;}</style></defs><title>icon_partners_advantages_1</title><path class="cls-1" d="M97.26,71.26a0.48,0.48,0,0,0-.37-0.17H0.49a0.48,0.48,0,0,0-.37.17,0.52,0.52,0,0,0-.12.4c0,0.09,1.47,9,12.76,9H84.63c11.28,0,12.74-8.92,12.75-9A0.48,0.48,0,0,0,97.26,71.26ZM55.94,77.55H41.44V74.21h14.5v3.34Z" transform="translate(0 -16.71)"/><path class="cls-1" d="M8.51,16.71V67.62H88.88V16.71H8.51ZM35.87,60.62a1.59,1.59,0,0,1,1.94,0H35.87Zm13.39,0a1.58,1.58,0,0,1,1-.33,1.55,1.55,0,0,1,1,.33H49.26Zm32.62,0H75.6l-10-10-3-3.06v13H60.31l0-11.36a2.29,2.29,0,0,0-1.6-2.2l-0.56-.19-0.1,0V27.93H39v2.82h0v10l-1.36-.44-0.28-.07-2.09-.74v2.46a0.28,0.28,0,0,0,0,.09v2.44H29.8v13A8.3,8.3,0,0,1,43.53,57a8.32,8.32,0,0,1,14.91,3.63H55.22a5.16,5.16,0,0,0-10,0H41.85a5.17,5.17,0,0,0-10,0H15.51V23.71H81.88V60.62ZM50.11,42.34L52.47,45l-0.12,0L42.21,41.73V31.52H54.86V43L51.24,38.7l-2.46,2.06Z" transform="translate(0 -16.71)"/><polygon class="cls-1" points="52.47 28.34 52.35 28.3 50.11 25.63 52.47 28.34"/><polygon class="cls-1" points="58.11 30.16 58.01 30.13 58.01 30.05 58.11 30.16"/></svg>