<svg id="Layer_1" data-name="Layer 1" xmlns="http://www.w3.org/2000/svg" viewBox="0 0 512 467.96"><title>icon_faqtheme_1</title><path d="M454.19,418.41A13.76,13.76,0,1,0,468,432.17,13.78,13.78,0,0,0,454.19,418.41Z" transform="translate(0 -22.02)"/><path d="M344.09,418.41a13.76,13.76,0,1,0,13.76,13.76A13.78,13.78,0,0,0,344.09,418.41Z" transform="translate(0 -22.02)"/><path d="M234,418.41a13.76,13.76,0,1,0,13.76,13.76A13.78,13.78,0,0,0,234,418.41Z" transform="translate(0 -22.02)"/><path d="M289,418.41a13.76,13.76,0,1,0,13.76,13.76A13.78,13.78,0,0,0,289,418.41Z" transform="translate(0 -22.02)"/><path d="M399.14,418.41a13.76,13.76,0,1,0,13.76,13.76A13.78,13.78,0,0,0,399.14,418.41Z" transform="translate(0 -22.02)"/><path d="M503.74,473.46h-9.15a57.76,57.76,0,0,0-37.65-99v-27.6h24.77a8.26,8.26,0,0,0,8.26-8.26V250.49a8.26,8.26,0,0,0-8.26-8.26H456.95V228.47a8.26,8.26,0,0,0-8.26-8.26H434.92v-46.8a8.26,8.26,0,0,0-5.65-7.83l-33-11a8.26,8.26,0,0,0-10.87,7.83v57.81H371.61a8.26,8.26,0,0,0-8.26,8.26v13.76H346.84V162.41a8.26,8.26,0,0,0-8.26-8.26h-7.14l-50.8-61a41.33,41.33,0,0,0-40.73-38.13h-0.43a41.28,41.28,0,0,0-4.51.25L91.22,63.76l2.35-32.89A8.26,8.26,0,0,0,85.34,22H19.27A8.26,8.26,0,0,0,11,30.28v300H8.26A8.26,8.26,0,0,0,0,338.58v49.55a57.87,57.87,0,0,0,57.81,57.81H129a8.26,8.26,0,1,0,0-16.52H115.61V388.13a57.91,57.91,0,0,0-43.56-56L86.58,128.65,213,136.09l16.74,43.14a96.12,96.12,0,0,0-31.57,71.26v88.09a8.26,8.26,0,0,0,8.26,8.26h24.77v27.6a57.76,57.76,0,0,0-37.65,99h-9.15a8.26,8.26,0,0,0,0,16.52H503.74A8.26,8.26,0,0,0,503.74,473.46ZM27.53,113.72a30.25,30.25,0,0,0,24.36,12.89l18.22,1.07L55.62,330.32H27.53V113.72Zm11-17.38A13.76,13.76,0,1,1,52.3,110.11,13.78,13.78,0,0,1,38.54,96.34ZM99.1,388.13v41.29H57.81a41.34,41.34,0,0,1-41.29-41.29V346.84H57.81A41.34,41.34,0,0,1,99.1,388.13ZM74.59,64.74L51.88,66.08A30.26,30.26,0,0,0,27.53,79V38.54H76.46ZM205,119.08l-117.28-6.9L90,80.38l115-6.76A41.17,41.17,0,0,0,205,119.08Zm196.85,54.79,16.52,5.51v40.84H401.89V173.87Zm-22,62.87h60.56v27.53H379.87V236.73ZM276.69,114.25l33.25,39.9h-15.4a95.77,95.77,0,0,0-51.09,14.7l-12.3-31.69s6.81,0.48,8.33.48h0A41.34,41.34,0,0,0,276.69,114.25Zm-62-17.9a24.81,24.81,0,0,1,21.74-24.58l3.2-.19a24.77,24.77,0,0,1,0,49.54l-3.2-.19A24.81,24.81,0,0,1,214.71,96.34Zm0,234V250.49a79.92,79.92,0,0,1,79.83-79.83h35.79v79.83a8.26,8.26,0,0,0,8.26,8.26h24.77v13.76a8.26,8.26,0,0,0,8.26,8.26h77.07a8.26,8.26,0,0,0,8.26-8.26V258.75h16.52v71.57H214.71Zm225.72,16.52v27.53H247.74V346.84H440.43Zm13.76,126.62H234a41.29,41.29,0,0,1,0-82.58H454.19A41.29,41.29,0,1,1,454.19,473.46Z" transform="translate(0 -22.02)"/><path d="M302.8,250.49v-44a8.26,8.26,0,0,0-8.26-8.26,52.36,52.36,0,0,0-52.3,52.3,8.26,8.26,0,0,0,8.26,8.26h44A8.26,8.26,0,0,0,302.8,250.49Zm-16.52-8.26H259.71a35.91,35.91,0,0,1,26.57-26.57v26.57Z" transform="translate(0 -22.02)"/><path d="M426.67,297.29H261.51a8.26,8.26,0,0,0,0,16.52H426.67A8.26,8.26,0,0,0,426.67,297.29Z" transform="translate(0 -22.02)"/></svg>