<svg id="Слой_1" data-name="Слой 1" xmlns="http://www.w3.org/2000/svg" viewBox="0 0 157.83 134.51"><defs><style>.cls-1{fill:#23692b;}</style></defs><title>icon_advantages_2</title><path class="cls-1" d="M338.48,326.08A3.92,3.92,0,1,0,342.4,330,3.92,3.92,0,0,0,338.48,326.08Zm0,5a1.08,1.08,0,1,1,1.08-1.08A1.08,1.08,0,0,1,338.48,331.08Z" transform="translate(-311.23 -212.74)"/><path class="cls-1" d="M408.48,326.08A3.92,3.92,0,1,0,412.4,330,3.92,3.92,0,0,0,408.48,326.08Zm0,5a1.08,1.08,0,1,1,1.08-1.08A1.08,1.08,0,0,1,408.48,331.08Z" transform="translate(-311.23 -212.74)"/><path class="cls-1" d="M438.48,326.08A3.92,3.92,0,1,0,442.4,330,3.92,3.92,0,0,0,438.48,326.08Zm0,5a1.08,1.08,0,1,1,1.08-1.08A1.08,1.08,0,0,1,438.48,331.08Z" transform="translate(-311.23 -212.74)"/><path class="cls-1" d="M469.07,317.25v-54.5l-31.74,0L359,220.27l0-.12a8.93,8.93,0,0,0-5.06-6.58,9.42,9.42,0,0,0-8.94.69,6.22,6.22,0,0,0-2.18,2.17,9.53,9.53,0,0,0-.89,8.52,9,9,0,0,0,5.86,5.29l0.18,0.05V242h2.26a3.37,3.37,0,1,1-3,5,3.33,3.33,0,0,1-.41-1.62h-3.7a7.07,7.07,0,1,0,9.32-6.7V233.2L414.57,286v26.71h-35.5v-40h-4.5v30h-5.5v-10H355.73V256.08H329.22l-18,18v56.52h10v0.09a17.17,17.17,0,0,0,5.18,11.65l0.44,0.43h-5.65v4.5H455.73v-2.17c0-.06,0-0.12,0-0.18v-2.15H450.1l0.44-.43A17.12,17.12,0,0,0,455.73,330a17.42,17.42,0,0,0-.18-2.44l-0.1-.74,3.11,3.11,0.11,0.09,1.49,1.49,3.18-3.18-0.82-.82h0l-1.64-1.64-4.6-4.6h0l-4-4h16.82Zm-23.33-50h18.83v45.5h-45.5V293.92h26.67V267.25Zm-18.87,50-0.44.43a17.36,17.36,0,0,0-2.73,3.45l-0.21.36-0.21-.36a17.32,17.32,0,0,0-2.73-3.45l-0.44-.43h6.76Zm14.37-50v22.17H419.07V279.27l12-12h10.15ZM352.8,225.19l-0.4.3v-4.7h-4.5v4.7l-0.4-.3a4.41,4.41,0,0,1,.95-7.6,4.71,4.71,0,0,1,5.48,1.47,5.39,5.39,0,0,1,.64,2.61A4.4,4.4,0,0,1,352.8,225.19Zm61.35,54.59L354.76,229.3l0.28-.18a8.94,8.94,0,0,0,3.24-3.79l0.11-.24,70.38,38.12-14.2,14.2v2.73Zm-45.09,27.47h5.5v5.5h-5.5v-5.5Zm-13.33-10h8.83v15.5h-8.83v-15.5Zm-40-21.32,15.35-15.35h6.82v22.17H315.73v-6.82Zm0,11.32H342.4V260.58h8.83v52.17h-35.5v-25.5ZM319,326.08h-3.29v-8.83h9.92Zm19.46,16.67a12.72,12.72,0,0,1-11.34-6.92c-2.34-4.54-1.78-9.83,1.56-14.53a9.75,9.75,0,0,1,8-4.05h3.17a10.7,10.7,0,0,1,9,4.91c2.89,4.59,3.19,9.69.82,14A12.77,12.77,0,0,1,338.48,342.75Zm11.62,0,0.44-.43a17.21,17.21,0,0,0,0-24.64l-0.44-.43h44.62l-4,4h0l-7.07,7.07,1.48,1.48,0.21,0.21,1.49,1.49,1.58-1.58h0l3.11-3.11-0.11.74a17.35,17.35,0,0,0-.18,2.44,17.12,17.12,0,0,0,5.19,12.32l0.44,0.43H350.1Zm65.28-1.84a14.45,14.45,0,0,1-6.92,1.83,12.58,12.58,0,0,1-9-3.72c-4.16-4.16-4.9-10.4-1.9-15.91a10,10,0,0,1,4-4c5.51-3,11.75-2.26,15.91,1.9s4.9,10.4,1.9,15.91A10,10,0,0,1,415.38,340.91Zm4.72,1.84,0.44-.43a17.36,17.36,0,0,0,2.73-3.45l0.21-.36,0.21,0.36a17.34,17.34,0,0,0,2.73,3.45l0.44,0.43H420.1Zm29.29-5.85a10,10,0,0,1-4,4,14.45,14.45,0,0,1-6.92,1.83,12.58,12.58,0,0,1-9-3.72c-4.16-4.16-4.9-10.4-1.9-15.91a10,10,0,0,1,4-4c5.5-3,11.75-2.26,15.91,1.9S452.4,331.39,449.39,336.9Z" transform="translate(-311.23 -212.74)"/><polygon class="cls-1" points="18.92 80.01 16.67 80.01 16.67 84.51 18.92 84.51 28.92 84.51 31.17 84.51 31.17 80.01 28.92 80.01 18.92 80.01"/><polygon class="cls-1" points="132.25 91.17 134.5 91.17 134.5 86.67 132.25 86.67 122.25 86.67 120 86.67 120 91.17 122.25 91.17 132.25 91.17"/></svg>