<svg id="Слой_1" data-name="Слой 1" xmlns="http://www.w3.org/2000/svg" viewBox="0 0 136.81 136.13"><defs><style>.cls-1{fill:#23692b;}</style></defs><title>icon_advantages_4</title><path class="cls-1" d="M823.59,281.62c-15.85-7.23-31.28,8.2-24,24a15.73,15.73,0,0,0,7.76,7.76c15.85,7.23,31.28-8.2,24-24A15.73,15.73,0,0,0,823.59,281.62Zm3.52,23.1a10.91,10.91,0,0,1-4.46,4.46c-12.76,6.82-25.68-6.1-18.86-18.86a10.91,10.91,0,0,1,4.46-4.46C821,279,833.93,292,827.11,304.72Z" transform="translate(-739.3 -211.94)"/><path class="cls-1" d="M826.06,234.25l-2.47,3.39,0.92,0.67h0l0.71,0.52,27,19.7,2.47-3.39-0.84-.61v0a0.13,0.13,0,0,0-.05-0.08l-26-18.87Z" transform="translate(-739.3 -211.94)"/><path class="cls-1" d="M873.65,251.92l2.47-3.39-1.6-1.16-0.1-.09-47-34.14-0.15-.09-1.54-1.12-1.14,1.57-0.1.11L804,241.85l-2.82-17.79s0-.07,0-0.11l-0.32-2-3.39.54h0l-58.11,9.22,11.54,72.7s0,0.09,0,.14l0.31,1.95,7.11-1.14h0l8.13-1.29v24.57h62.29v-8a26.67,26.67,0,0,0,4.06-2.86L838,323l-3.16,3.16h0l20.44,20.44c0.41,0.41,1.48,1.43,1.48,1.43s1.07-1,1.48-1.43l6.32-6.32c0.39-.39,1.44-1.48,1.44-1.48s-1-1.09-1.44-1.48l-19-19c-0.39-.39-1.48-1.4-1.48-1.4s-1.09,1-1.48,1.4L841,320.07l-5.22-5.22a26.48,26.48,0,0,0,6.39-17.32c0-.69,0-1.38-0.08-2.08l31.61-43.53h0Zm-29.54,70.91,16,16-3.36,3.36-16-16Zm-77.69-23-11.77,1.87L744.1,235.23l53.25-8.45,3.15,19.86L795.9,253H766.42v10.68h0L758.16,265l0.66,4.14,7.6-1.22v13.83l-5.47.88,0.32,2s0,0.07,0,.1l0.33,2.06,2-.31h0.11l2.75-.44v13.86Zm58.1,24.63H770.61V257.16h53.91v15.27a26.42,26.42,0,0,0-9.08-1.59c-0.59,0-1.17,0-1.75.06a2.1,2.1,0,0,0-.49-0.06H779.83V275h21.26a26.75,26.75,0,0,0-6.09,5.36,26.44,26.44,0,0,0-4.74,8.33H781l-0.07,0h-1.08v4.19h9.34a26.73,26.73,0,0,0-.4,4.58,26.45,26.45,0,0,0,1.56,9h-10.5v4.19h1.58a2.08,2.08,0,0,0,.51.07H792.3a26.71,26.71,0,0,0,32.22,11.82v1.86Zm6.82-11.06-0.11.11a19.18,19.18,0,0,1-1.91,1.71c-6.31,4.82-14,6-22,3.43a19.71,19.71,0,0,1-11.45-10l-0.45-.89A22.24,22.24,0,0,1,793,297.52a22.52,22.52,0,0,1,.85-6.13A23,23,0,0,1,803,278.73a19.64,19.64,0,0,1,7.07-3.1,22.88,22.88,0,0,1,15.61,1.86,22.41,22.41,0,0,1,12.13,17.59h0a22.9,22.9,0,0,1,.13,2.44A22.34,22.34,0,0,1,831.35,313.43ZM841,289.78a26.58,26.58,0,0,0-12.27-15.39V263.46l11.39,8.27h0l1.66,1.21,1.1-1.51a2.13,2.13,0,0,0,.26-0.36l1.11-1.52-15.53-11.31V253H821.5l-5.9-4.3-2.47,3.39,1.25,0.91h-13.3l3.32-4.57h0l22.24-30.64,43.63,31.68Z" transform="translate(-739.3 -211.94)"/><rect class="cls-1" x="808.19" y="290.66" width="12.85" height="4.19" transform="translate(-707.72 449.83) rotate(-45)"/><rect class="cls-1" x="810.44" y="299.62" width="12.85" height="4.19" transform="translate(-713.39 454.04) rotate(-45)"/><rect class="cls-1" x="755.54" y="244.47" width="35.41" height="4.19" transform="translate(-768.59 -86.39) rotate(-9.11)"/></svg>