<svg id="Layer_1" data-name="Layer 1" xmlns="http://www.w3.org/2000/svg" viewBox="0 0 512 402.74"><defs><style>.cls-1{fill:#fff;}</style></defs><title>icon_partners_advantages_4</title><path class="cls-1" d="M35.37,197.37L103,0A214.54,214.54,0,0,0,73.58,3.44,16.24,16.24,0,0,0,61.29,14.13L11.08,160.58a16.26,16.26,0,0,0,3.17,16A215,215,0,0,0,35.37,197.37Z"/><path class="cls-1" d="M509.39,188.37L451.13,98.51a16.21,16.21,0,0,0-13.61-7.4H411.44V90.74h-72v20h0v154H245.79q9.26-.93,18-2.59a16.23,16.23,0,0,0,12.32-10.68L326.32,105a16.26,16.26,0,0,0-3.17-16,219.62,219.62,0,0,0-24.8-23.87l-68.43,199.6H105.18V240.51q11.37,5,23.47,9.12a301.48,301.48,0,0,0,66.09,14.74L270,44.82A307.52,307.52,0,0,0,138.06.72L63.49,218.29q4.08,2.63,8.3,5.14v41.29H0v70a71.72,71.72,0,0,1,120.58-16.19,71.74,71.74,0,0,1,123.27,23H375.74a71.76,71.76,0,0,1,133.35-7,16.14,16.14,0,0,0,2.91-9.26V197.17A16.25,16.25,0,0,0,509.39,188.37Zm-128.85-2.65V113.87h50.83l47.49,71.83H380.54v0Z"/><circle class="cls-1" cx="443.79" cy="364.34" r="38.4"/><circle class="cls-1" cx="65.36" cy="364.34" r="38.4"/><circle class="cls-1" cx="175.79" cy="364.34" r="38.4"/></svg>