<svg id="Слой_1" data-name="Слой 1" xmlns="http://www.w3.org/2000/svg" viewBox="0 0 53.61 67.56"><defs><style>.cls-1{fill:#ce281b;stroke:#ce281b;stroke-miterlimit:10;}</style></defs><title>icon_trash</title><path class="cls-1" d="M501.07,254.84h-8.89v-5.77a2.07,2.07,0,0,0-2.1-2.06,0.31,0.31,0,0,0-.22.07,0.3,0.3,0,0,0-.15-0.07H468.52a2,2,0,0,0-2.06,2.06v5.77h-8.92a4.48,4.48,0,0,0-4.54,4.54v7.43h3.94v42.26a4.42,4.42,0,0,0,4.5,4.5h35.74a4.45,4.45,0,0,0,4.54-4.5V266.8h3.9v-7.43a4.48,4.48,0,0,0-4.54-4.54h0Zm-30.49-3.71H488v3.71H470.59v-3.71Zm27,57.94a0.32,0.32,0,0,1-.37.38H461.44a0.32,0.32,0,0,1-.38-0.37V266.8h36.49v42.26Zm3.9-46.39H457.16v-3.3a0.35,0.35,0,0,1,.38-0.41h43.54a0.35,0.35,0,0,1,.38.41v3.3Zm0,0" transform="translate(-452.5 -246.5)"/><rect class="cls-1" x="34.36" y="25.14" width="4.16" height="34.13"/><rect class="cls-1" x="24.76" y="25.14" width="4.16" height="34.13"/><rect class="cls-1" x="15.16" y="25.14" width="4.16" height="34.13"/></svg>