<svg id="Слой_1" data-name="Слой 1" xmlns="http://www.w3.org/2000/svg" viewBox="0 0 55.71 48.25"><defs><style>.cls-1{fill:#2ca447;}</style></defs><title>icon_about_targets_1</title><g id="_Группа_" data-name="&lt;Группа&gt;"><path id="_Составной_контур_" data-name="&lt;Составной контур&gt;" class="cls-1" d="M511.26,848.81H483.4l-13.93,24.12,13.93,24.12h27.86l13.93-24.12Zm-11.93,43.6a19.58,19.58,0,1,1,17.48-17.48A19.58,19.58,0,0,1,499.32,892.41Z" transform="translate(-469.47 -848.81)"/><path id="_Составной_контур_2" data-name="&lt;Составной контур&gt;" class="cls-1" d="M499.52,856.18a16.9,16.9,0,1,0,14.56,14.56A16.9,16.9,0,0,0,499.52,856.18Zm-0.6,28.89a12.24,12.24,0,1,1,10.55-10.55A12.25,12.25,0,0,1,498.92,885.07Z" transform="translate(-469.47 -848.81)"/></g></svg>