<svg id="Слой_1" data-name="Слой 1" xmlns="http://www.w3.org/2000/svg" viewBox="0 0 103.36 135.95"><defs><style>.cls-1{fill:#23692b;}</style></defs><title>icon_advantages_3</title><path class="cls-1" d="M566,243.07h0v32.61c0,19.34,8.61,37.65,23,49A56.76,56.76,0,0,0,603.42,333a2.2,2.2,0,0,0,.85.16,2.17,2.17,0,0,0,.86-0.16,56.46,56.46,0,0,0,14.34-8.31c14.42-11.33,23-29.64,23-49V243.07h0a36,36,0,0,1-6.13-.51,78.47,78.47,0,0,1-30.78-12l-1.31-.93-1.32.93a78.3,78.3,0,0,1-30.77,12A36,36,0,0,1,566,243.07Zm4.69,6.53v-2.05a84.7,84.7,0,0,0,33.52-12.23,84.7,84.7,0,0,0,33.54,12.23v28.13c0,17.91-7.94,34.84-21.24,45.3a52.77,52.77,0,0,1-12.3,7.29A53,53,0,0,1,592,321c-13.3-10.46-21.25-27.4-21.25-45.3V249.6h0Z" transform="translate(-552.59 -211.4)"/><polygon class="cls-1" points="47.32 89.89 80.35 52.18 80.42 52.11 76.89 49.02 47.08 83.09 30.91 66.92 30.84 66.85 27.6 70.09 27.53 70.16 47.24 89.82 47.32 89.89"/><path class="cls-1" d="M653.6,230.54c-13.27,0-25.61-2.88-35.7-8.32a44.78,44.78,0,0,1-11.85-8.77c-0.42-.51-1.78-2-1.78-2s-1.38,1.54-1.81,2c-0.14.17-14.71,17.1-47.53,17.1h-2.34v45.14c0,23.42,10.53,45.68,28.17,59.56a68.85,68.85,0,0,0,22.85,12,2.71,2.71,0,0,0,.66.09,2.75,2.75,0,0,0,.68-0.09,68.7,68.7,0,0,0,22.83-12C645.42,321.37,656,299.1,656,275.68V230.54H653.6Zm-2.34,4.66v40.48c0,22-9.86,42.89-26.38,55.88a64,64,0,0,1-20.61,11,64.13,64.13,0,0,1-20.6-11c-16.52-13-26.38-33.87-26.38-55.87V235.2h0c27-.62,41.82-12,47-16.88,5.16,4.93,19.94,16.26,47,16.88h0Z" transform="translate(-552.59 -211.4)"/></svg>