<svg id="Layer_1" data-name="Layer 1" xmlns="http://www.w3.org/2000/svg" viewBox="0 0 503.32 433.9"><title>icon_faqtheme_3</title><path d="M494.64,173.56H381.83V112.81c0-5.21-3.47-8.68-8.68-8.68H199.59V43.39c0-5.21-3.47-8.68-8.68-8.68H8.68C3.47,34.71,0,38.18,0,43.39V459.93c0,5.21,3.47,8.68,8.68,8.68h486c5.21,0,8.68-3.47,8.68-8.68V182.24C503.32,177,499.85,173.56,494.64,173.56ZM373.15,381.83H321.09V329.76H425.22v52.07H373.15Zm-121.49,0H199.59V329.76H303.73v52.07H251.66Zm-121.49,0H78.1V329.76H182.24v52.07H130.17Zm-112.81,0V329.76H60.75v52.07H17.36ZM69.42,121.49h52.07v52.07H17.36V121.49H69.42Zm182.24,69.42h52.07V243H199.59V190.92h52.07ZM433.9,260.34H486v52.07H381.83V260.34H433.9Zm-69.42,52.07H260.34V260.34H364.48v52.07Zm-173.56,0H138.85V260.34H243v52.07H190.91Zm-121.49,0H17.36V260.34H121.49v52.07H69.42ZM17.36,190.91H60.75V243H17.36V190.91ZM182.24,243H78.1V190.92H182.24V243h0Zm260.34,86.78H486v52.07H442.58V329.76ZM486,243H442.58V190.92H486V243Zm-60.75,0H321.08V190.92H425.22V243Zm-60.74-69.42H260.34V121.49H364.48v52.07h0Zm-121.49,0H138.85V121.49H243v52.07Zm-60.75-69.42H78.1V52.07H182.24v52.07h0ZM17.36,52.07H60.75v52.07H17.36V52.07Zm0,347.12H121.49v52.07H17.36V399.19Zm121.49,0H243v52.07H138.85V399.19Zm121.49,0H364.47v52.07H260.34V399.19ZM486,451.25H381.83V399.19H486v52.07h0Z" transform="translate(0 -34.71)"/></svg>