<svg id="Layer_1" data-name="Layer 1" xmlns="http://www.w3.org/2000/svg" viewBox="0 0 512.13 512"><title>icon_faqtheme_4</title><path d="M511.15,175.85L468.48,90.52q-2.56-5.12-7.68-5.12H223a9.25,9.25,0,0,0-1.71,0H219L192.85,6a8.2,8.2,0,0,0-7.68-6H157c-4.27,0-7.68,2.56-8.53,6L122.29,85.4H102.4V76.87c0-5.12-3.41-8.53-8.53-8.53H51.2c-5.12,0-8.53,3.41-8.53,8.53v25.6H8.53C3.41,102.47,0,105.88,0,111v17.07a42.25,42.25,0,0,0,42.67,42.67v25.6c0,5.12,3.41,8.53,8.53,8.53H93.87c5.12,0,8.53-3.41,8.53-8.53V187.8h17.07V495H68.27c-5.12,0-8.53,3.41-8.53,8.53s3.41,8.53,8.53,8.53H315.73c5.12,0,8.53-3.41,8.53-8.53s-3.41-8.53-8.53-8.53H221.87V187.8H418.13v90.45C407,290,401.07,305.94,401.07,322.63v10.24c0,5.12,3.41,8.53,8.53,8.53h8.53v17.07c0,5.12,3.41,8.53,8.53,8.53a17.07,17.07,0,1,1-17.07,17.07c0-5.12-3.41-8.53-8.53-8.53s-8.53,3.41-8.53,8.53a34.13,34.13,0,1,0,42.67-33V341.4h8.53c5.12,0,8.53-3.41,8.53-8.53V322.63A64.89,64.89,0,0,0,435.2,278.4V187.8h68.27a10.82,10.82,0,0,0,7.68-3.41C512,181.83,512.85,178.41,511.15,175.85ZM465,121.13l-37.78,45.2L403.46,136.6l27.31-34.13h24.92ZM155.79,123.8l-19.26,13.48v-27Zm220.35-21.33h32.77l-16.38,20.48Zm5.46,34.13-23.21,29-23.21-29,23.21-29Zm-57.34-13.65-16.38-20.48h32.77ZM313.34,136.6l-23.21,29-23.21-29,23.21-29ZM256,122.95l-16.38-20.48h32.77Zm-51.2,14.34L185.54,123.8l19.26-13.48v27Zm-5.69,16.84-28.44,22.76-28.44-22.76,28.44-19.91Zm-62.58,25.15v-7.85L157,187.8l-20.48,16.38V179.27ZM184.32,392.6l20.48-16.38V409Zm16.21,35-29,26.1-29.91-27,28.95-23.16Zm4.27-119.64v32.77l-20.48-16.38Zm-34.13,5.46-29-23.21,29-23.21,29,23.21Zm29,45.06-29,23.21-29-23.21,29-23.21Zm5.12-86-20.48-16.38,20.48-16.38v32.77Zm-34.13-27.31-29-23.21,29-23.21,29,23.21ZM157,256.07l-20.48,16.38V239.68Zm0,68.27-20.48,16.38V307.95Zm0,68.3L136.53,409V376.25Zm1.49,72.86-21.93,19.76V445.76Zm12.68,11.41L191.24,495H151Zm13.11-11.8,20.55-18.5v37ZM204.8,179.27v24.92L184.32,187.8l20.48-16.38v7.85Zm17.07-23.6a7.42,7.42,0,0,0,0-4.75V107.59l23.21,29-23.21,29v-9.94Zm50.52,15.07H239.62L256,150.25Zm51.88-20.48,16.38,20.48H307.88Zm68.27,0,16.38,20.48H376.15ZM163,17.13H179.2l24,73.51-32.5,22.75L138.21,90.67ZM17.07,128.07v-8.53h25.6v34.13A25.14,25.14,0,0,1,17.07,128.07ZM85.33,187.8H59.73V85.4h25.6V187.8Zm17.07-17.07V102.47h17.07v68.27H102.4Zm332.8,153.6H418.13v-1.71a47.63,47.63,0,0,1,8.53-28.16,47.63,47.63,0,0,1,8.53,28.16v1.71h0Zm10.42-153.6,27.65-33.08,16.54,33.08H445.62Z" transform="translate(0 -0.07)"/></svg>