<svg id="Слой_1" data-name="Слой 1" xmlns="http://www.w3.org/2000/svg" viewBox="0 0 90.96 90.96"><defs><style>.cls-1{fill:#2aa345;stroke:#2aa345;stroke-miterlimit:10;}</style></defs><title>icon_print</title><path class="cls-1" d="M457.88,325.38h43.2a1.74,1.74,0,0,0,1.78-1.78V311.3h19.82a1.74,1.74,0,0,0,1.78-1.78V251.28a1.74,1.74,0,0,0-1.78-1.78H502.86V237.2a1.74,1.74,0,0,0-1.78-1.78h-43.2a1.74,1.74,0,0,0-1.78,1.78v12.3H436.28a1.74,1.74,0,0,0-1.78,1.78v58.24a1.85,1.85,0,0,0,1.78,1.78H456.1v12.3A1.74,1.74,0,0,0,457.88,325.38Zm41.42-3.56H459.66v-30H499.3v30ZM459.66,239H499.3V249.5H459.66V239Zm-21.6,68.76V253.06H520.9v54.68h-18v-16h7.34a1.78,1.78,0,1,0,0-3.56H448.84a1.78,1.78,0,1,0,0,3.56h7.34v16H438.06Z" transform="translate(-434 -234.92)"/><path class="cls-1" d="M496.84,266.38a1.78,1.78,0,1,0,0,3.56h8.48a1.78,1.78,0,1,0,0-3.56h-8.48Z" transform="translate(-434 -234.92)"/></svg>