<svg id="Слой_1" data-name="Слой 1" xmlns="http://www.w3.org/2000/svg" viewBox="0 0 32.06 29"><defs><style>.cls-1{fill:#2aa345;}</style></defs><title>icon_cart</title><path class="cls-1" d="M489.53,285.73a0.73,0.73,0,0,0,.67-0.44l5.58-12.83a0.73,0.73,0,0,0-.06-0.69,0.72,0.72,0,0,0-.6-0.32h-17a0.72,0.72,0,0,0,0,1.45H494l-5,11.39H474.72l-5.09-18.42a0.72,0.72,0,0,0-.7-0.53h-4.42a0.72,0.72,0,1,0,0,1.45h3.89l5.09,18.42a0.72,0.72,0,0,0,.7.53h15.35Z" transform="translate(-463.78 -265.33)"/><circle class="cls-1" cx="9.24" cy="26.73" r="2.27"/><path class="cls-1" d="M488.1,292.21a2.28,2.28,0,0,0,2.25,2.12h0.2a2.23,2.23,0,0,0,1.52-.78,2.27,2.27,0,0,0-1.72-3.77H490.2a2.23,2.23,0,0,0-1.55.78A2.27,2.27,0,0,0,488.1,292.21Z" transform="translate(-463.78 -265.33)"/></svg>