<svg id="Слой_1" data-name="Слой 1" xmlns="http://www.w3.org/2000/svg" viewBox="0 0 281.91 256.09"><defs><style>.cls-1{fill:#fff;stroke:#fff;stroke-miterlimit:10;}</style></defs><title>icon_clip</title><path class="cls-1" d="M598.66,174.25a72.57,72.57,0,0,0-102.62,0L354.94,315.34a54.28,54.28,0,0,0,64.61,85.95,9,9,0,0,0,5.93-2.56L566.59,257.64a36.27,36.27,0,0,0-51.3-51.3L399.84,321.79a9.07,9.07,0,0,0,12.82,12.82L528.11,219.17a18.14,18.14,0,1,1,25.65,25.65L419.07,379.51a36.27,36.27,0,0,1-51.3-51.3L508.86,187.08a54.42,54.42,0,0,1,77,77L457.56,392.31a9.07,9.07,0,0,0,12.83,12.82L598.66,276.87a72.57,72.57,0,0,0,0-102.62h0Zm0,0" transform="translate(-338.5 -152.5)"/></svg>