<svg id="Слой_1" data-name="Слой 1" xmlns="http://www.w3.org/2000/svg" viewBox="0 0 292.79 351.89"><defs><style>.cls-1{fill:#fff;}</style></defs><title>icon_investors_advantages_1</title><path id="_Контур_" data-name="&lt;Контур&gt;" class="cls-1" d="M-472,340.29V516h58.26V340.29H-472Z" transform="translate(677.22 -208.24)"/><path id="_Контур_2" data-name="&lt;Контур&gt;" class="cls-1" d="M-560,399V516h58.31V399H-560Z" transform="translate(677.22 -208.24)"/><path id="_Контур_3" data-name="&lt;Контур&gt;" class="cls-1" d="M-589.63,516.06V457.71H-647.9v58.35h58.27Z" transform="translate(677.22 -208.24)"/><path id="_Контур_4" data-name="&lt;Контур&gt;" class="cls-1" d="M-457.28,208.24q-0.09,25.41-.17,50.82c0,11,0,22,0,33,0,1.24,0,2.48,0,3.94h-29.33V258.4L-652,423.54l-20.61-20.76,165-165h-37.66V208.24h88Z" transform="translate(677.22 -208.24)"/><path id="_Контур_5" data-name="&lt;Контур&gt;" class="cls-1" d="M-677.22,560.13V531h292.79v29.1H-677.22Z" transform="translate(677.22 -208.24)"/><path id="_Контур_6" data-name="&lt;Контур&gt;" class="cls-1" d="M-472,340.29h58.26V516H-472V340.29Z" transform="translate(677.22 -208.24)"/><path id="_Контур_7" data-name="&lt;Контур&gt;" class="cls-1" d="M-560,399h58.31V516H-560V399Z" transform="translate(677.22 -208.24)"/><path id="_Контур_8" data-name="&lt;Контур&gt;" class="cls-1" d="M-589.63,516.06H-647.9V457.71h58.27v58.35Z" transform="translate(677.22 -208.24)"/></svg>