<svg id="Слой_1" data-name="Слой 1" xmlns="http://www.w3.org/2000/svg" xmlns:xlink="http://www.w3.org/1999/xlink" viewBox="0 0 235.55 161.96"><defs><style>.cls-1{fill:none;}.cls-2{fill:#2ca446;}.cls-3{fill:#348c3e;}.cls-4{clip-path:url(#clip-path);}.cls-5{fill:#2c2929;}</style><clipPath id="clip-path" transform="translate(-367.24 -207.33)"><polygon id="_Обтравочный_контур_" data-name="&lt;Обтравочный контур&gt;" class="cls-1" points="525.89 322.75 502.16 292.21 487.2 292.21 487.2 350 503.04 350 503.04 318.32 527.74 350 541.73 350 541.73 292.21 525.89 292.21 525.89 322.75"/></clipPath></defs><title>logo_foderent_2</title><g id="_Группа_" data-name="&lt;Группа&gt;"><path id="_Составной_контур_" data-name="&lt;Составной контур&gt;" class="cls-2" d="M472.19,207.33H428.52l-21.84,37.82L428.52,283h43.67L494,245.15Zm-21.84,68.5A30.68,30.68,0,1,1,481,245.15,30.68,30.68,0,0,1,450.35,275.84Z" transform="translate(-367.24 -207.33)"/><path id="_Составной_контур_2" data-name="&lt;Составной контур&gt;" class="cls-2" d="M450.35,218.67a26.48,26.48,0,1,0,26.48,26.48A26.48,26.48,0,0,0,450.35,218.67Zm0,45.67a19.19,19.19,0,1,1,19.19-19.19A19.19,19.19,0,0,1,450.35,264.34Z" transform="translate(-367.24 -207.33)"/><polygon id="_Контур_" data-name="&lt;Контур&gt;" class="cls-3" points="158.66 115.42 134.92 84.87 119.97 84.87 119.97 142.66 135.81 142.66 135.81 110.99 160.51 142.66 174.49 142.66 174.49 84.87 158.66 84.87 158.66 115.42"/><polygon id="_Контур_2" data-name="&lt;Контур&gt;" class="cls-1" points="158.66 115.42 134.92 84.87 119.97 84.87 119.97 142.66 135.81 142.66 135.81 110.99 160.51 142.66 174.49 142.66 174.49 84.87 158.66 84.87 158.66 115.42"/><g id="_Группа_обтравки_" data-name="&lt;Группа обтравки&gt;"><g class="cls-4"><rect id="_Прямоугольник_" data-name="&lt;Прямоугольник&gt;" class="cls-2" x="500.44" y="245.82" width="68.66" height="114.47" transform="translate(-440.54 185.57) rotate(-37.95)"/></g></g><path id="_Составной_контур_3" data-name="&lt;Составной контур&gt;" class="cls-5" d="M555.92,274V216.2h46.46v13.62H571.76v7.88h27.73v12.65H571.76v10h31V274H555.92Z" transform="translate(-367.24 -207.33)"/><path id="_Составной_контур_4" data-name="&lt;Составной контур&gt;" class="cls-2" d="M367.24,350V292.21h27.26q12.58,0,18.77,6.24,5.11,5.15,5.11,13.78A18.22,18.22,0,0,1,415.26,323a19.71,19.71,0,0,1-8.68,6.78L420.36,350H401.89l-11.65-17.57h-7V350h-16Zm16-30h10.56a9.73,9.73,0,0,0,6.33-1.85,6.24,6.24,0,0,0,2.26-5.1,5.92,5.92,0,0,0-2.28-5,10.37,10.37,0,0,0-6.39-1.73H383.23V320Z" transform="translate(-367.24 -207.33)"/><path id="_Составной_контур_5" data-name="&lt;Составной контур&gt;" class="cls-2" d="M552.09,306.27V292.21h50.7v14.06H585.42V350h-16V306.27H552.09Z" transform="translate(-367.24 -207.33)"/><polygon id="_Контур_3" data-name="&lt;Контур&gt;" class="cls-5" points="33.29 31.85 16 31.85 16 22.93 38.37 22.93 46.22 9.11 46.22 8.86 0 8.86 0 66.65 16 66.65 16 45.15 25.52 45.15 33.29 31.85"/><polygon id="_Контур_4" data-name="&lt;Контур&gt;" class="cls-2" points="77.18 119.03 86.53 119.03 86.47 118.93 93.61 106.37 77.18 106.37 77.18 98.5 98.09 98.5 105.79 84.95 105.79 84.87 61.34 84.87 61.34 142.66 108.21 142.66 108.21 129.04 77.18 129.04 77.18 119.03"/><path id="_Составной_контур_6" data-name="&lt;Составной контур&gt;" class="cls-5" d="M547.14,233.36a26,26,0,0,0-6.32-9.11,28.47,28.47,0,0,0-10.27-5.94,42.17,42.17,0,0,0-13.77-2.12H494.51v12.55l9.44,16.35-9.44,16.35V274h21.95a41.71,41.71,0,0,0,13.89-2.19,29.05,29.05,0,0,0,10.39-6.07,26.51,26.51,0,0,0,6.38-9.19A29.45,29.45,0,0,0,549.35,245,29.82,29.82,0,0,0,547.14,233.36ZM528.64,256q-4.31,3.9-11.61,3.9h-6.53V230.26H517q7.25,0,11.59,4T533,245.07Q533,252.11,528.64,256Z" transform="translate(-367.24 -207.33)"/></g></svg>