<svg id="Слой_1" data-name="Слой 1" xmlns="http://www.w3.org/2000/svg" xmlns:xlink="http://www.w3.org/1999/xlink" viewBox="0 0 235.55 161.96"><defs><style>.cls-1{fill:none;}.cls-2{fill:#2ca446;}.cls-3{fill:#348c3e;}.cls-4{clip-path:url(#clip-path);}.cls-5{fill:#fff;}</style><clipPath id="clip-path" transform="translate(-397.2 -602.84)"><polygon id="_Обтравочный_контур_" data-name="&lt;Обтравочный контур&gt;" class="cls-1" points="555.86 718.26 532.12 687.72 517.17 687.72 517.17 745.5 533.01 745.5 533.01 713.83 557.71 745.5 571.69 745.5 571.69 687.72 555.86 687.72 555.86 718.26"/></clipPath></defs><title>logo_foderent_white_2</title><path id="_Составной_контур_" data-name="&lt;Составной контур&gt;" class="cls-2" d="M502.15,602.84H458.48l-21.84,37.82,21.84,37.82h43.67L524,640.66Zm-21.84,68.5A30.68,30.68,0,1,1,511,640.66,30.68,30.68,0,0,1,480.32,671.35Z" transform="translate(-397.2 -602.84)"/><path id="_Составной_контур_2" data-name="&lt;Составной контур&gt;" class="cls-2" d="M480.32,614.18a26.48,26.48,0,1,0,26.48,26.48A26.48,26.48,0,0,0,480.32,614.18Zm0,45.67a19.19,19.19,0,1,1,19.19-19.19A19.19,19.19,0,0,1,480.32,659.85Z" transform="translate(-397.2 -602.84)"/><polygon id="_Контур_" data-name="&lt;Контур&gt;" class="cls-3" points="158.66 115.42 134.92 84.87 119.97 84.87 119.97 142.66 135.81 142.66 135.81 110.99 160.51 142.66 174.49 142.66 174.49 84.87 158.66 84.87 158.66 115.42"/><polygon id="_Контур_2" data-name="&lt;Контур&gt;" class="cls-1" points="158.66 115.42 134.92 84.87 119.97 84.87 119.97 142.66 135.81 142.66 135.81 110.99 160.51 142.66 174.49 142.66 174.49 84.87 158.66 84.87 158.66 115.42"/><g id="_Группа_обтравки_" data-name="&lt;Группа обтравки&gt;"><g class="cls-4"><rect id="_Прямоугольник_" data-name="&lt;Прямоугольник&gt;" class="cls-2" x="530.4" y="641.33" width="68.66" height="114.47" transform="translate(-707.37 -107.9) rotate(-37.95)"/></g></g><path id="_Составной_контур_3" data-name="&lt;Составной контур&gt;" class="cls-5" d="M585.88,669.49V611.71h46.46v13.62H601.72v7.88h27.73v12.65H601.72v10h31v13.62H585.88Z" transform="translate(-397.2 -602.84)"/><path id="_Составной_контур_4" data-name="&lt;Составной контур&gt;" class="cls-2" d="M397.2,745.5V687.72h27.26q12.58,0,18.77,6.24,5.11,5.15,5.11,13.78a18.22,18.22,0,0,1-3.12,10.77,19.71,19.71,0,0,1-8.68,6.78l13.78,20.21H431.86l-11.65-17.57h-7V745.5h-16Zm16-30h10.56a9.73,9.73,0,0,0,6.33-1.85,6.24,6.24,0,0,0,2.26-5.1,5.92,5.92,0,0,0-2.28-5,10.37,10.37,0,0,0-6.39-1.73H413.2v13.7Z" transform="translate(-397.2 -602.84)"/><path id="_Составной_контур_5" data-name="&lt;Составной контур&gt;" class="cls-2" d="M582.06,701.78V687.72h50.7v14.06H615.38V745.5h-16V701.78H582.06Z" transform="translate(-397.2 -602.84)"/><polygon id="_Контур_3" data-name="&lt;Контур&gt;" class="cls-5" points="33.29 31.85 16 31.85 16 22.93 38.37 22.93 46.22 9.11 46.22 8.86 0 8.86 0 66.65 16 66.65 16 45.15 25.52 45.15 33.29 31.85"/><polygon id="_Контур_4" data-name="&lt;Контур&gt;" class="cls-2" points="77.18 119.03 86.53 119.03 86.47 118.93 93.61 106.37 77.18 106.37 77.18 98.5 98.09 98.5 105.79 84.95 105.79 84.87 61.34 84.87 61.34 142.66 108.21 142.66 108.21 129.04 77.18 129.04 77.18 119.03"/><path id="_Составной_контур_6" data-name="&lt;Составной контур&gt;" class="cls-5" d="M577.1,628.87a26,26,0,0,0-6.32-9.11,28.47,28.47,0,0,0-10.27-5.94,42.17,42.17,0,0,0-13.77-2.12H524.47v12.55l9.44,16.35-9.44,16.35v12.55h21.95a41.71,41.71,0,0,0,13.89-2.19,29.05,29.05,0,0,0,10.39-6.07,26.51,26.51,0,0,0,6.38-9.19,29.45,29.45,0,0,0,2.24-11.54A29.82,29.82,0,0,0,577.1,628.87Zm-18.5,22.66q-4.31,3.9-11.61,3.9h-6.53V625.77H547q7.25,0,11.59,4t4.33,10.84Q562.92,647.62,558.61,651.53Z" transform="translate(-397.2 -602.84)"/></svg>