<?xml version="1.0" encoding="utf-8"?>
<!-- Generator: Adobe Illustrator 16.0.0, SVG Export Plug-In . SVG Version: 6.00 Build 0)  -->
<!DOCTYPE svg PUBLIC "-//W3C//DTD SVG 1.1 Basic//EN" "http://www.w3.org/Graphics/SVG/1.1/DTD/svg11-basic.dtd">
<svg version="1.1" baseProfile="basic" id="Layer_1"
	 xmlns="http://www.w3.org/2000/svg" xmlns:xlink="http://www.w3.org/1999/xlink" x="0px" y="0px" width="350px" height="43.828px"
	 viewBox="0 0 350 43.828" xml:space="preserve">
<rect x="203.139" y="1.032" fill="#B7CFBC" width="12.786" height="41.774"/>
<g>
	<path fill="#B7CFBC" d="M241.108,1.027c12.788-0.003,21.072,7.738,21.074,20.766c0.004,13.9-7.627,21.003-21.293,21.006
		l-18.419,0.006L222.46,1.032L241.108,1.027z M235.02,32.243l5.047-0.002c6.277-0.001,9.379-3.936,9.378-10.214
		c-0.003-7.096-4.041-10.5-10.62-10.498l-3.81,0.001L235.02,32.243z"/>
	<polygon fill="#B7CFBC" points="302.274,11.167 280.271,11.172 280.27,16.39 300.223,16.385 300.225,26.067 280.271,26.071 
		280.273,32.175 302.866,32.168 302.865,42.786 267.663,42.794 267.653,1.022 302.271,1.013 	"/>
	<path fill="#B7CFBC" d="M321.537,36.853l-2.056,5.927l-12.961,0.004l15.416-41.779l12.676-0.002L350,42.771l-12.974,0.004
		l-2.052-5.925l-2.818-8.977c-0.768-2.405-2.229-7.157-2.229-7.157c-0.884-2.875-0.996-3.582-1.591-6.338
		c-0.701,2.877-0.933,3.816-1.756,6.4c0,0-0.877,2.873-2.288,7.097L321.537,36.853z"/>
	<path fill="#B7CFBC" d="M21.063,1.086c6.928-0.002,14.843,1.813,14.845,10.435c0.001,4.111-2.049,6.515-5.219,8.395
		c4.696,1.64,7.279,4.866,7.281,10.265c0.002,9.799-7.861,12.676-16.013,12.677L0.01,42.862L0,1.091L21.063,1.086z M12.442,17.046
		l7.222-0.003c2.404-0.001,3.869-1.174,3.868-3.168c-0.001-2.17-1.464-3.283-4.461-3.282l-6.631,0.002L12.442,17.046z
		 M12.445,32.944l7.922-0.002c3.227-0.002,4.871-1.291,4.87-3.871c-0.001-2.582-1.702-3.99-4.872-3.989l-7.922,0.002L12.445,32.944z
		"/>
	<path fill="#B7CFBC" d="M132.342,43.828c-12.788,0.003-20.949-9.615-20.954-21.995C111.384,9.571,119.89,0.004,132.566,0
		c10.203-0.002,18.362,7.095,18.955,16.484l-12.436,0.003c-0.705-3.756-3.112-5.867-6.754-5.865c-6.041,0-8.038,6.044-8.036,11.208
		c0.002,6.921,3.054,11.204,8.041,11.203c3.755-0.002,6.104-2.347,6.752-6.692l12.609-0.002
		C150.936,37.897,142.487,43.825,132.342,43.828"/>
	<path fill="#B7CFBC" d="M181.334,17.267l17.552,25.52l-16.021,0.003L172.65,26.538l-3.753,3.935l0.004,12.321l-12.606,0.002
		l-0.011-41.771l12.666-0.004l-0.057,8.446c0.002,3.99-0.06,2.758-0.173,6.399l11.907-14.848l15.837-0.004L181.334,17.267z"/>
	<path fill="#B7CFBC" d="M97.556,1.068L84.877,1.071l-11.388,30.86l-18.47,0.004L55.012,1.079L42.165,1.081l0.01,41.771
		l27.286-0.006l12.963-0.004l2.056-5.924l2.753-8.975c1.409-4.227,2.289-7.102,2.289-7.102c0.824-2.585,1.053-3.522,1.76-6.399
		c0.585,2.76,0.702,3.461,1.584,6.342c0,0,1.467,4.743,2.231,7.157l2.818,8.975l2.055,5.922l12.959-0.003L97.556,1.068z"/>
</g>
</svg>
