<?xml version="1.0" encoding="utf-8"?>
<!-- Generator: Adobe Illustrator 16.0.0, SVG Export Plug-In . SVG Version: 6.00 Build 0)  -->
<!DOCTYPE svg PUBLIC "-//W3C//DTD SVG 1.1 Basic//EN" "http://www.w3.org/Graphics/SVG/1.1/DTD/svg11-basic.dtd">
<svg version="1.1" baseProfile="basic" id="Layer_1"
	 xmlns="http://www.w3.org/2000/svg" xmlns:xlink="http://www.w3.org/1999/xlink" x="0px" y="0px" width="300.125px"
	 height="48.249px" viewBox="0 0 300.125 48.249" xml:space="preserve">
<g>
	<defs>
		<rect id="SVGID_1_" y="-29.683" width="300.125" height="84.51"/>
	</defs>
	<clipPath id="SVGID_2_">
		<use xlink:href="#SVGID_1_"  overflow="visible"/>
	</clipPath>
	<path clip-path="url(#SVGID_2_)" fill="#2CA447" d="M66.946,0H39.09L25.162,24.125L39.09,48.249h27.856l13.928-24.124L66.946,0z
		 M53.018,43.696c-10.809,0-19.572-8.763-19.572-19.571c0-10.81,8.763-19.572,19.572-19.572c10.809,0,19.572,8.763,19.572,19.572
		C72.59,34.933,63.827,43.696,53.018,43.696"/>
	<path clip-path="url(#SVGID_2_)" fill="#2CA447" d="M53.018,7.231c-9.329,0-16.892,7.563-16.892,16.892
		c0,9.33,7.563,16.894,16.892,16.894c9.329,0,16.892-7.563,16.892-16.894C69.91,14.794,62.347,7.231,53.018,7.231 M53.018,36.363
		c-6.759,0-12.238-5.479-12.238-12.239c0-6.759,5.479-12.238,12.238-12.238c6.759,0,12.239,5.479,12.239,12.238
		C65.257,30.883,59.777,36.363,53.018,36.363"/>
	<polygon clip-path="url(#SVGID_2_)" fill="#348B3F" points="253.053,25.138 237.913,5.654 228.376,5.654 228.376,42.515 
		238.478,42.515 238.478,22.311 254.232,42.515 263.154,42.515 263.154,5.654 253.053,5.654 	"/>
</g>
<polygon fill="#2CA447" points="253.053,25.137 237.913,5.654 228.376,5.654 228.376,9.278 254.293,42.515 263.155,42.515 
	263.155,5.654 253.053,5.654 "/>
<g>
	<defs>
		<rect id="SVGID_3_" y="-29.683" width="300.125" height="84.51"/>
	</defs>
	<clipPath id="SVGID_4_">
		<use xlink:href="#SVGID_3_"  overflow="visible"/>
	</clipPath>
	<polygon clip-path="url(#SVGID_4_)" fill="#FFFFFF" points="120.355,42.515 120.355,5.654 149.993,5.654 149.993,14.341 
		130.457,14.341 130.457,19.368 148.143,19.368 148.143,27.439 130.457,27.439 130.457,33.827 150.25,33.827 150.25,42.515 	"/>
	<path clip-path="url(#SVGID_4_)" fill="#2CA447" d="M155.322,42.515V5.654h17.387c5.352,0,9.343,1.326,11.977,3.98
		c2.171,2.189,3.257,5.12,3.257,8.79c0,2.698-0.663,4.989-1.99,6.871c-1.327,1.884-3.172,3.326-5.536,4.326l8.791,12.894h-11.778
		L170,31.307h-4.473v11.208H155.322z M165.527,23.364h6.735c1.73,0,3.076-0.392,4.036-1.177c0.959-0.786,1.438-1.872,1.438-3.256
		c0-1.402-0.484-2.47-1.452-3.204c-0.969-0.735-2.327-1.102-4.075-1.102h-6.683V23.364z"/>
	<polygon clip-path="url(#SVGID_4_)" fill="#2CA447" points="267.788,14.625 267.788,5.654 300.125,5.654 300.125,14.625 
		289.046,14.625 289.046,42.515 278.842,42.515 278.842,14.625 	"/>
	<polygon clip-path="url(#SVGID_4_)" fill="#FFFFFF" points="21.233,20.319 10.205,20.319 10.205,14.625 24.471,14.625 
		29.484,5.812 29.484,5.654 0,5.654 0,42.514 10.205,42.514 10.205,28.8 16.279,28.8 	"/>
	<polygon clip-path="url(#SVGID_4_)" fill="#2CA447" points="203.896,27.439 211.143,27.439 211.105,27.374 215.659,19.368 
		203.896,19.368 203.896,14.341 218.518,14.341 223.432,5.702 223.432,5.654 193.794,5.654 193.794,42.515 223.689,42.515 
		223.689,33.827 203.896,33.827 	"/>
	<path clip-path="url(#SVGID_4_)" fill="#FFFFFF" d="M114.754,16.601c-0.942-2.25-2.287-4.186-4.032-5.809
		c-1.748-1.622-3.931-2.885-6.551-3.787c-2.62-0.901-5.548-1.352-8.785-1.352H81.183v8.003l6.02,10.428l-6.02,10.428v8.003h13.999
		c3.253,0,6.208-0.466,8.862-1.398c2.654-0.932,4.863-2.224,6.627-3.874c1.764-1.649,3.121-3.604,4.071-5.86
		c0.95-2.258,1.426-4.712,1.426-7.363C116.167,21.324,115.696,18.851,114.754,16.601 M102.955,31.053
		c-1.833,1.66-4.301,2.491-7.403,2.491h-4.164V14.625h4.164c3.085,0,5.548,0.843,7.391,2.528c1.842,1.687,2.763,3.992,2.763,6.917
		C105.706,27.065,104.789,29.392,102.955,31.053"/>
</g>
</svg>
