<svg id="Слой_1" data-name="Слой 1" xmlns="http://www.w3.org/2000/svg" xmlns:xlink="http://www.w3.org/1999/xlink" viewBox="0 0 470.51 132.49"><defs><style>.cls-1{fill:none;}.cls-2{fill:#2ca446;}.cls-3{fill:#348c3e;}.cls-4{clip-path:url(#clip-path);}.cls-5{fill:#fff;}</style><clipPath id="clip-path" transform="translate(-397.2 -389.84)"><polygon id="_Обтравочный_контур_" data-name="&lt;Обтравочный контур&gt;" class="cls-1" points="793.92 475.79 770.18 445.24 755.23 445.24 755.23 503.03 771.07 503.03 771.07 471.35 795.77 503.03 809.76 503.03 809.76 445.24 793.92 445.24 793.92 475.79"/></clipPath></defs><title>logo_foderent_white</title><g id="_Группа_" data-name="&lt;Группа&gt;"><path id="_Составной_контур_" data-name="&lt;Составной контур&gt;" class="cls-2" d="M502.15,436.38H458.48L436.65,474.2,458.48,512h43.67L524,474.2Zm-21.84,68.5A30.68,30.68,0,1,1,511,474.2,30.68,30.68,0,0,1,480.32,504.88Z" transform="translate(-397.2 -389.84)"/><path id="_Составной_контур_2" data-name="&lt;Составной контур&gt;" class="cls-2" d="M480.32,447.71A26.48,26.48,0,1,0,506.8,474.2,26.48,26.48,0,0,0,480.32,447.71Zm0,45.67A19.19,19.19,0,1,1,499.5,474.2,19.19,19.19,0,0,1,480.32,493.38Z" transform="translate(-397.2 -389.84)"/><polygon id="_Контур_" data-name="&lt;Контур&gt;" class="cls-3" points="396.72 85.94 372.98 55.4 358.03 55.4 358.03 113.19 373.87 113.19 373.87 81.51 398.57 113.19 412.56 113.19 412.56 55.4 396.72 55.4 396.72 85.94"/><polygon id="_Контур_2" data-name="&lt;Контур&gt;" class="cls-1" points="396.72 85.94 372.98 55.4 358.03 55.4 358.03 113.19 373.87 113.19 373.87 81.51 398.57 113.19 412.56 113.19 412.56 55.4 396.72 55.4 396.72 85.94"/><g id="_Группа_обтравки_" data-name="&lt;Группа обтравки&gt;"><g class="cls-4"><rect id="_Прямоугольник_" data-name="&lt;Прямоугольник&gt;" class="cls-2" x="768.46" y="398.85" width="68.66" height="114.47" transform="translate(-507.94 200.22) rotate(-37.95)"/></g></g><path id="_Составной_контур_3" data-name="&lt;Составной контур&gt;" class="cls-5" d="M585.88,503V445.24h46.46v13.62H601.72v7.88h27.73v12.65H601.72v10h31V503H585.88Z" transform="translate(-397.2 -389.84)"/><path id="_Составной_контур_4" data-name="&lt;Составной контур&gt;" class="cls-2" d="M640.7,503V445.24H668q12.58,0,18.77,6.24,5.11,5.15,5.11,13.78A18.22,18.22,0,0,1,688.72,476a19.71,19.71,0,0,1-8.68,6.78L693.83,503H675.36l-11.65-17.57h-7V503h-16Zm16-30h10.56a9.73,9.73,0,0,0,6.33-1.85,6.24,6.24,0,0,0,2.26-5.1,5.92,5.92,0,0,0-2.28-5,10.37,10.37,0,0,0-6.39-1.73H656.7V473Z" transform="translate(-397.2 -389.84)"/><path id="_Составной_контур_5" data-name="&lt;Составной контур&gt;" class="cls-2" d="M817,459.3V445.24h50.7V459.3H850.35V503h-16V459.3H817Z" transform="translate(-397.2 -389.84)"/><polygon id="_Контур_3" data-name="&lt;Контур&gt;" class="cls-5" points="33.29 78.39 16 78.39 16 69.46 38.37 69.46 46.22 55.65 46.22 55.4 0 55.4 0 113.19 16 113.19 16 91.69 25.52 91.69 33.29 78.39"/><polygon id="_Контур_4" data-name="&lt;Контур&gt;" class="cls-2" points="319.65 89.55 331.01 89.55 330.96 89.45 338.1 76.9 319.65 76.9 319.65 69.02 342.58 69.02 350.28 55.47 350.28 55.4 303.82 55.4 303.82 113.19 350.68 113.19 350.68 99.57 319.65 99.57 319.65 89.55"/><path id="_Составной_контур_6" data-name="&lt;Составной контур&gt;" class="cls-5" d="M577.1,462.4a26,26,0,0,0-6.32-9.11,28.47,28.47,0,0,0-10.27-5.94,42.17,42.17,0,0,0-13.77-2.12H524.47v12.55l9.44,16.35-9.44,16.35V503h21.95a41.71,41.71,0,0,0,13.89-2.19,29.05,29.05,0,0,0,10.39-6.07,26.51,26.51,0,0,0,6.38-9.19A29.45,29.45,0,0,0,579.32,474,29.82,29.82,0,0,0,577.1,462.4Zm-18.5,22.66Q554.29,489,547,489h-6.53V459.3H547q7.25,0,11.59,4t4.33,10.84Q562.92,481.15,558.61,485.06Z" transform="translate(-397.2 -389.84)"/></g></svg>