<svg id="Слой_1" data-name="Слой 1" xmlns="http://www.w3.org/2000/svg" viewBox="0 0 55.71 48.25"><defs><style>.cls-1{fill:#2ca447;}</style></defs><title>nut</title><path id="_Составной_контур_" data-name="&lt;Составной контур&gt;" class="cls-1" d="M460.83,48.86H433L419,73,433,97.11h27.86L474.75,73ZM446.9,92.56A19.57,19.57,0,1,1,466.47,73,19.57,19.57,0,0,1,446.9,92.56Z" transform="translate(-419.04 -48.86)"/><path id="_Составной_контур_2" data-name="&lt;Составной контур&gt;" class="cls-1" d="M446.9,56.09A16.89,16.89,0,1,0,463.79,73,16.89,16.89,0,0,0,446.9,56.09Zm0,29.13A12.24,12.24,0,1,1,459.14,73,12.24,12.24,0,0,1,446.9,85.22Z" transform="translate(-419.04 -48.86)"/></svg>