<svg id="Capa_1" data-name="Capa 1" xmlns="http://www.w3.org/2000/svg" viewBox="0 0 612 497.12"><defs><style>.cls-1{fill:#2ca346;}</style></defs><title>twitter</title><path class="cls-1" d="M612,116.26A250.71,250.71,0,0,1,539.91,136,126.07,126.07,0,0,0,595.1,66.62,253.1,253.1,0,0,1,515.32,97.1,125.64,125.64,0,0,0,301.39,211.56,356.43,356.43,0,0,1,42.64,80.39,125.69,125.69,0,0,0,81.5,248a125.56,125.56,0,0,1-56.87-15.76v1.57a125.67,125.67,0,0,0,100.69,123.1,127.17,127.17,0,0,1-33.08,4.4,120.5,120.5,0,0,1-23.63-2.33,125.61,125.61,0,0,0,117.25,87.19A251.89,251.89,0,0,1,29.94,499.8,266.81,266.81,0,0,1,0,498.07a354.88,354.88,0,0,0,192.44,56.49c230.95,0,357.19-191.29,357.19-357.19l-0.42-16.25A250.7,250.7,0,0,0,612,116.26Z" transform="translate(0 -57.44)"/></svg>