<svg id="Layer_1" data-name="Layer 1" xmlns="http://www.w3.org/2000/svg" viewBox="0 0 305.36 173.24"><defs><style>.cls-1{fill:#2ca346;stroke:#fff;stroke-miterlimit:10;}</style></defs><title>vkontakte</title><g id="_Группа_" data-name="&lt;Группа&gt;"><path id="_Контур_" data-name="&lt;Контур&gt;" class="cls-1" d="M261.95,175.58c10.1,9.86,20.75,19.13,29.81,30A87.11,87.11,0,0,1,302.44,221c4.11,8,.39,16.71-6.75,17.18l-44.34,0c-11.44.95-20.56-3.65-28.23-11.47-6.14-6.25-11.82-12.91-17.73-19.37a42,42,0,0,0-8-7.09c-6.05-3.93-11.31-2.73-14.77,3.59s-4.32,13.53-4.67,20.69c-0.48,10.44-3.63,13.19-14.12,13.66-22.41,1.06-43.69-2.33-63.45-13.64-17.42-10-30.93-24-42.69-40-22.89-31-40.43-65.11-56.19-100.15C-2,76.46.58,72.22,9.3,72.07c14.47-.28,28.93-0.26,43.41,0,5.88,0.09,9.77,3.46,12,9a269.09,269.09,0,0,0,29.42,54.52c3.2,4.52,6.46,9,11.11,12.22,5.14,3.52,9.06,2.35,11.48-3.37A37.83,37.83,0,0,0,119.31,133c1.15-13.38,1.3-26.74-.71-40.08-1.23-8.32-5.92-13.71-14.23-15.29-4.24-.8-3.61-2.38-1.56-4.8,3.56-4.17,6.92-6.77,13.6-6.77h50.11c7.89,1.56,9.64,5.1,10.72,13l0,55.66c-0.09,3.07,1.54,12.19,7.07,14.23,4.43,1.45,7.35-2.1,10-4.9,12-12.73,20.56-27.78,28.21-43.37,3.4-6.85,6.31-14,9.14-21.08,2.1-5.28,5.38-7.87,11.33-7.76l48.23,0a25.44,25.44,0,0,1,4.26.26c8.13,1.39,10.35,4.88,7.84,12.82-4,12.45-11.65,22.83-19.17,33.25-8,11.13-16.64,21.88-24.62,33.07-7.33,10.22-6.75,15.38,2.36,24.25h0Z" transform="translate(0.5 -65.56)"/></g></svg>